<svg width="50" height="42" viewBox="0 0 50 42" fill="none" xmlns="http://www.w3.org/2000/svg">
<path d="M41.1131 30.7603L35.162 30.7604C33.644 33.124 31.6206 35.1246 29.2422 36.6211H41.1131V41.0141L49.9998 33.6914L41.1131 26.3672V30.7603Z" fill="white"/>
<path d="M19.2519 36.6156C28.0988 36.5552 35.2539 29.3693 35.2539 20.5078C35.2539 12.1034 28.817 5.20937 20.6055 4.46836V0L11.8164 7.32422L20.6055 14.647V10.4019C25.5615 11.1204 29.3945 15.3559 29.3945 20.5078C29.3945 26.1612 24.794 30.7617 19.1406 30.7617H0V36.6211H19.2585C19.2556 36.6193 19.2547 36.6174 19.2519 36.6156Z" fill="white"/>
<path d="M11.9872 27.8319C10.0798 25.9686 8.88672 23.378 8.88672 20.5077C8.88672 17.1031 10.5729 14.1019 13.1352 12.2359L8.53193 8.40039C5.16436 11.3537 3.02734 15.6768 3.02734 20.5077C3.02734 23.1547 3.70703 25.6288 4.83799 27.8319H11.9872Z" fill="white"/>
</svg>
