<svg width="35" height="43" viewBox="0 0 35 43" fill="none" xmlns="http://www.w3.org/2000/svg">
<path fill-rule="evenodd" clip-rule="evenodd" d="M19.5567 3.82416C22.3143 0.17757 26.1472 0.158203 26.1472 0.158203C26.1472 0.158203 26.7173 3.58691 23.9784 6.88904C21.0541 10.4167 17.7292 9.83841 17.7292 9.83841C17.7292 9.83841 17.1053 7.06611 19.5567 3.82416Z" fill="#999999"/>
<path fill-rule="evenodd" clip-rule="evenodd" d="M18.0815 12.488C19.5002 12.488 22.1323 10.5312 25.5592 10.5312C31.4576 10.5312 33.778 14.743 33.778 14.743C33.778 14.743 29.2398 17.0705 29.2398 22.7202C29.2398 29.0928 34.8927 31.2889 34.8927 31.2889C34.8927 31.2889 30.9398 42.45 25.602 42.45C23.1498 42.45 21.2437 40.7899 18.6606 40.7899C16.0278 40.7899 13.4151 42.5095 11.7137 42.5095C6.83908 42.5095 0.683594 31.9225 0.683594 23.4119C0.683594 15.0425 5.89669 10.6468 10.7858 10.6468C13.9611 10.6488 16.427 12.488 18.0815 12.488Z" fill="#999999"/>
</svg>
