<svg width="52" height="48" viewBox="0 0 52 48" fill="none" xmlns="http://www.w3.org/2000/svg">
<path d="M51.1034 21.9028H39.6366V19.6883C39.636 19.3648 39.4613 19.0667 39.1793 18.9083L26.8966 12.0048V8.49035H29.3262V9.82621C29.3262 10.3213 29.7276 10.7228 30.2228 10.7228H37.5476C38.0427 10.7225 38.4439 10.321 38.4438 9.82587C38.4438 9.7221 38.4256 9.6191 38.3903 9.52138L37.6552 7.43241L38.3993 5.38828C38.5676 4.92263 38.3267 4.40868 37.861 4.24035C37.7634 4.20505 37.6604 4.18701 37.5566 4.1869H34.2214V2.8869C34.2214 2.39178 33.8199 1.99034 33.3248 1.99034H26.8966V0.896552C26.8966 0.401431 26.4951 0 26 0C25.5049 0 25.1034 0.401431 25.1034 0.896552V12.0048L12.8207 18.8993C12.5387 19.0578 12.364 19.3559 12.3634 19.6793V21.8938H0.896552C0.401431 21.8938 0 22.2952 0 22.7903V46.2441C0 46.7393 0.401431 47.1407 0.896552 47.1407H51.1034C51.5986 47.1407 52 46.7393 52 46.2441V22.7993C52 22.3042 51.5986 21.9028 51.1034 21.9028ZM34.2214 7.59379L34.1855 7.55793V6.01586H36.2297L35.8621 7.16345C35.7887 7.36316 35.7887 7.58236 35.8621 7.78207L36.2835 8.92966H31.1193V8.49035H33.3248C33.8199 8.49035 34.2214 8.08891 34.2214 7.59379ZM26.8966 3.78345H32.4283V5.11931V6.69724H26.8966V3.78345ZM12.3634 45.3476H1.7931V23.6959H12.3634V45.3476ZM25.1034 45.3476H20.3966V35.109H25.1034V45.3476ZM31.6034 45.3476H26.8966V35.109H31.6034V45.3476ZM37.8793 45.3476H33.3966V34.2124C33.3966 33.7173 32.9951 33.3159 32.5 33.3159H19.5C19.0049 33.3159 18.6034 33.7173 18.6034 34.2124V45.3476H14.1207V20.2441L26 13.5559L37.8434 20.2083L37.8793 22.7903V45.3476ZM50.2069 45.3476H39.6366V23.6959H50.2069V45.3476Z" fill="black"/>
<path d="M26.0007 16.2988C23.9245 16.3038 22.2441 17.9882 22.2441 20.0643C22.2491 22.1391 23.9349 23.8169 26.0097 23.8119C28.0844 23.807 29.7622 22.1211 29.7572 20.0464C29.7523 17.9753 28.0718 16.2988 26.0007 16.2988ZM26.0007 22.0188C24.9163 22.0139 24.0413 21.1308 24.0462 20.0464C24.0511 18.9691 24.9233 18.0969 26.0007 18.0919C27.0865 18.0969 27.9641 18.9785 27.9641 20.0643H27.9731C27.9682 21.1487 27.0851 22.0238 26.0007 22.0188Z" fill="black"/>
<path d="M5.74623 25.668H3.95312V29.2542H5.74623V25.668Z" fill="black"/>
<path d="M10.1662 25.668H8.37305V29.2542H10.1662V25.668Z" fill="black"/>
<path d="M20.4319 25.668H16.8457V27.4611H20.4319V25.668Z" fill="black"/>
<path d="M27.7932 25.668H24.207V27.4611H27.7932V25.668Z" fill="black"/>
<path d="M35.1526 25.668H31.5664V27.4611H35.1526V25.668Z" fill="black"/>
<path d="M20.4319 29.8457H16.8457V31.6388H20.4319V29.8457Z" fill="black"/>
<path d="M27.7932 29.8457H24.207V31.6388H27.7932V29.8457Z" fill="black"/>
<path d="M35.1526 29.8457H31.5664V31.6388H35.1526V29.8457Z" fill="black"/>
<path d="M5.74623 32.7246H3.95312V36.3108H5.74623V32.7246Z" fill="black"/>
<path d="M10.1662 32.7246H8.37305V36.3108H10.1662V32.7246Z" fill="black"/>
<path d="M5.74623 39.7891H3.95312V43.3753H5.74623V39.7891Z" fill="black"/>
<path d="M10.1662 39.7891H8.37305V43.3753H10.1662V39.7891Z" fill="black"/>
<path d="M43.6271 25.668H41.834V29.2542H43.6271V25.668Z" fill="black"/>
<path d="M48.047 25.668H46.2539V29.2542H48.047V25.668Z" fill="black"/>
<path d="M43.6271 32.7246H41.834V36.3108H43.6271V32.7246Z" fill="black"/>
<path d="M48.047 32.7246H46.2539V36.3108H48.047V32.7246Z" fill="black"/>
<path d="M43.6271 39.7891H41.834V43.3753H43.6271V39.7891Z" fill="black"/>
<path d="M48.047 39.7891H46.2539V43.3753H48.047V39.7891Z" fill="black"/>
</svg>
