<svg width="46" height="46" viewBox="0 0 46 46" fill="none" xmlns="http://www.w3.org/2000/svg">
<path d="M45.2333 40.847V23.0006C45.2312 22.882 45.201 22.7656 45.1452 22.6609H45.1528L43.276 18.9081C42.8896 18.1257 42.0917 17.6314 41.2191 17.6339H36.0333V16.8672C36.0333 16.6639 35.9525 16.469 35.8087 16.3252L31.658 12.1745C31.3821 11.9014 31.0408 11.7037 30.6667 11.6002V6.42908L32.2 6.01738V7.87425V7.87962C32.1991 8.6669 32.5926 9.4023 33.248 9.83845C33.4759 9.99046 33.7676 10.0094 34.0132 9.88801C34.2588 9.76666 34.421 9.52351 34.4387 9.25014C34.4564 8.97678 34.3269 8.71473 34.099 8.56272C33.8703 8.41075 33.733 8.15423 33.7333 7.87962V7.87425V5.53822C34.27 5.22825 34.5673 4.62571 34.4868 4.01123C34.4062 3.39674 33.9637 2.89115 33.3653 2.72992L23.3941 0.05272C23.1359 -0.0162713 22.8641 -0.0162713 22.6059 0.05272L12.6347 2.72992C11.9641 2.91299 11.499 3.52214 11.499 4.21725C11.499 4.91236 11.9641 5.52151 12.6347 5.70458L15.3333 6.42908V11.5006H15.285C14.6034 11.5009 13.9573 11.8043 13.5217 12.3286L10.1484 16.3766C10.0321 16.5138 9.96782 16.6874 9.96667 16.8672V17.6339H4.78093C3.90903 17.6309 3.11125 18.1239 2.72397 18.905L0.847167 22.6579H0.854833C0.798524 22.7634 0.768293 22.8809 0.766667 23.0006V40.847C0.293824 41.1187 0.0016445 41.6219 0 42.1672V43.7006C0 44.5474 0.686497 45.2339 1.53333 45.2339H11.7131C11.9848 45.7067 12.488 45.9989 13.0333 46.0006H32.9667C33.512 45.9989 34.0151 45.7067 34.2869 45.2339H44.4667C45.3135 45.2339 46 44.5474 46 43.7006V42.1672C45.9984 41.6219 45.7062 41.1187 45.2333 40.847ZM33.7333 40.6339H32.9667V23.7672H43.7V40.6339H33.7333ZM25.3 40.6339H20.7V32.2006H25.3V40.6339ZM26.0667 30.6672H19.9333C19.5099 30.6672 19.1667 31.0105 19.1667 31.4339V40.6339H14.5667V23.7672H31.4333V40.6339H26.8333V31.4339C26.8333 31.0105 26.4901 30.6672 26.0667 30.6672ZM34.5 17.6339V19.1672H11.5V17.6339H34.5ZM32.9667 20.7006V22.2339H13.0333V20.7006H32.9667ZM41.2191 19.1672C41.5097 19.1663 41.7755 19.3308 41.9045 19.5912L43.2262 22.2339H34.5V20.7006C35.3468 20.7006 36.0333 20.0141 36.0333 19.1672H41.2191ZM23 1.53392L32.9774 4.21725H32.9674L23.0038 6.90058L13.0333 4.21112L23 1.53392ZM16.8667 6.84078L22.6059 8.38178C22.864 8.45128 23.136 8.45128 23.3941 8.38178L29.1333 6.84078V11.5006H16.8667V6.84078ZM14.6962 13.3099C14.8418 13.1351 15.0575 13.034 15.285 13.0339H30.0311C30.2347 13.0338 30.43 13.1146 30.5739 13.2585L33.4159 16.1006H12.3702L14.6962 13.3099ZM4.09553 19.5912C4.22447 19.3308 4.49032 19.1663 4.78093 19.1672H9.96667C9.96667 20.0141 10.6532 20.7006 11.5 20.7006V22.2339H2.7738L4.09553 19.5912ZM1.53333 42.1672H11.5V43.7006H1.53333V42.1672ZM12.2667 40.6339H2.3V23.7672H13.0333V40.6339H12.2667ZM13.0333 44.4672V42.1672H32.9667V44.4672H13.0333ZM44.4667 43.7006H34.5V42.1672H44.4667V43.7006Z" fill="black"/>
<path d="M20.7003 25.2998C20.2768 25.2998 19.9336 25.6431 19.9336 26.0665V27.5998C19.9336 28.0232 20.2768 28.3665 20.7003 28.3665C21.1237 28.3665 21.4669 28.0232 21.4669 27.5998V26.0665C21.4669 25.6431 21.1237 25.2998 20.7003 25.2998Z" fill="black"/>
<path d="M9.96589 26.0664C9.54247 26.0664 9.19922 26.4097 9.19922 26.8331V28.3664C9.19922 28.7898 9.54247 29.1331 9.96589 29.1331C10.3893 29.1331 10.7326 28.7898 10.7326 28.3664V26.8331C10.7326 26.4097 10.3893 26.0664 9.96589 26.0664Z" fill="black"/>
<path d="M5.36628 26.0664C4.94286 26.0664 4.59961 26.4097 4.59961 26.8331V28.3664C4.59961 28.7898 4.94286 29.1331 5.36628 29.1331C5.7897 29.1331 6.13294 28.7898 6.13294 28.3664V26.8331C6.13294 26.4097 5.7897 26.0664 5.36628 26.0664Z" fill="black"/>
<path d="M9.96589 30.666C9.54247 30.666 9.19922 31.0093 9.19922 31.4327V32.966C9.19922 33.3894 9.54247 33.7327 9.96589 33.7327C10.3893 33.7327 10.7326 33.3894 10.7326 32.966V31.4327C10.7326 31.0093 10.3893 30.666 9.96589 30.666Z" fill="black"/>
<path d="M5.36628 30.666C4.94286 30.666 4.59961 31.0093 4.59961 31.4327V32.966C4.59961 33.3894 4.94286 33.7327 5.36628 33.7327C5.7897 33.7327 6.13294 33.3894 6.13294 32.966V31.4327C6.13294 31.0093 5.7897 30.666 5.36628 30.666Z" fill="black"/>
<path d="M9.96589 35.2666C9.54247 35.2666 9.19922 35.6099 9.19922 36.0333V37.5666C9.19922 37.99 9.54247 38.3333 9.96589 38.3333C10.3893 38.3333 10.7326 37.99 10.7326 37.5666V36.0333C10.7326 35.6099 10.3893 35.2666 9.96589 35.2666Z" fill="black"/>
<path d="M5.36628 35.2666C4.94286 35.2666 4.59961 35.6099 4.59961 36.0333V37.5666C4.59961 37.99 4.94286 38.3333 5.36628 38.3333C5.7897 38.3333 6.13294 37.99 6.13294 37.5666V36.0333C6.13294 35.6099 5.7897 35.2666 5.36628 35.2666Z" fill="black"/>
<path d="M40.6338 26.0664C40.2104 26.0664 39.8672 26.4097 39.8672 26.8331V28.3664C39.8672 28.7898 40.2104 29.1331 40.6338 29.1331C41.0573 29.1331 41.4005 28.7898 41.4005 28.3664V26.8331C41.4005 26.4097 41.0573 26.0664 40.6338 26.0664Z" fill="black"/>
<path d="M36.0323 26.0664C35.6089 26.0664 35.2656 26.4097 35.2656 26.8331V28.3664C35.2656 28.7898 35.6089 29.1331 36.0323 29.1331C36.4557 29.1331 36.7989 28.7898 36.7989 28.3664V26.8331C36.7989 26.4097 36.4557 26.0664 36.0323 26.0664Z" fill="black"/>
<path d="M40.6338 30.666C40.2104 30.666 39.8672 31.0093 39.8672 31.4327V32.966C39.8672 33.3894 40.2104 33.7327 40.6338 33.7327C41.0573 33.7327 41.4005 33.3894 41.4005 32.966V31.4327C41.4005 31.0093 41.0573 30.666 40.6338 30.666Z" fill="black"/>
<path d="M36.0323 30.666C35.6089 30.666 35.2656 31.0093 35.2656 31.4327V32.966C35.2656 33.3894 35.6089 33.7327 36.0323 33.7327C36.4557 33.7327 36.7989 33.3894 36.7989 32.966V31.4327C36.7989 31.0093 36.4557 30.666 36.0323 30.666Z" fill="black"/>
<path d="M40.6338 35.2666C40.2104 35.2666 39.8672 35.6099 39.8672 36.0333V37.5666C39.8672 37.99 40.2104 38.3333 40.6338 38.3333C41.0573 38.3333 41.4005 37.99 41.4005 37.5666V36.0333C41.4005 35.6099 41.0573 35.2666 40.6338 35.2666Z" fill="black"/>
<path d="M36.0323 35.2666C35.6089 35.2666 35.2656 35.6099 35.2656 36.0333V37.5666C35.2656 37.99 35.6089 38.3333 36.0323 38.3333C36.4557 38.3333 36.7989 37.99 36.7989 37.5666V36.0333C36.7989 35.6099 36.4557 35.2666 36.0323 35.2666Z" fill="black"/>
<path d="M25.2999 25.2998C24.8764 25.2998 24.5332 25.6431 24.5332 26.0665V27.5998C24.5332 28.0232 24.8764 28.3665 25.2999 28.3665C25.7233 28.3665 26.0665 28.0232 26.0665 27.5998V26.0665C26.0665 25.6431 25.7233 25.2998 25.2999 25.2998Z" fill="black"/>
</svg>
