<svg width="30" height="36" viewBox="0 0 30 36" fill="none" xmlns="http://www.w3.org/2000/svg">
<path d="M13.8436 31.8448L29.0726 16.6123H17.9992L8.30859 26.3063L13.8436 31.8448Z" fill="white"/>
<path d="M0 17.9983L17.9982 0H29.0717L5.53845 23.5367L0 17.9983Z" fill="white"/>
<path d="M17.9974 35.9962H29.0708L19.3802 26.3057L13.8418 31.8441L17.9974 35.9962Z" fill="white"/>
<path d="M8.30859 26.3021L13.847 20.7637L19.3855 26.3021L13.847 31.8441L8.30859 26.3021Z" fill="white"/>
<path d="M29.0717 16.6119L19.3811 26.306L29.0717 36H17.9982L13.8427 31.8444L8.30422 26.306L17.9982 16.6119H29.0717ZM17.9982 0L0 17.9983L5.53845 23.5367L29.0717 0H17.9982Z" fill="url(#paint0_radial)"/>
<defs>
<radialGradient id="paint0_radial" cx="0" cy="0" r="1" gradientUnits="userSpaceOnUse" gradientTransform="translate(-794.045 -323.803) scale(1.70965)">
<stop stop-color="white" stop-opacity="0.1"/>
<stop offset="1" stop-color="white" stop-opacity="0"/>
</radialGradient>
</defs>
</svg>
