<svg width="31" height="31" viewBox="0 0 31 31" fill="none" xmlns="http://www.w3.org/2000/svg">
<path d="M26.1972 5.79469C25.5552 5.15234 24.7929 4.64279 23.9539 4.29514C23.1148 3.94749 22.2155 3.76855 21.3073 3.76855C20.3991 3.76855 19.4998 3.94749 18.6608 4.29514C17.8218 4.64279 17.0595 5.15234 16.4174 5.79469L15.085 7.12715L13.7525 5.79469C12.4556 4.49781 10.6967 3.76923 8.86262 3.76923C7.02855 3.76923 5.26961 4.49781 3.97273 5.79469C2.67585 7.09157 1.94727 8.85052 1.94727 10.6846C1.94727 12.5186 2.67585 14.2776 3.97273 15.5745L5.30519 16.9069L15.085 26.6867L24.8648 16.9069L26.1972 15.5745C26.8396 14.9324 27.3491 14.1701 27.6968 13.3311C28.0444 12.4921 28.2234 11.5928 28.2234 10.6846C28.2234 9.77638 28.0444 8.87709 27.6968 8.03806C27.3491 7.19904 26.8396 6.43673 26.1972 5.79469V5.79469Z" stroke="#FF7743" stroke-width="2" stroke-linecap="round" stroke-linejoin="round"/>
</svg>
