<svg width="10" height="11" viewBox="0 0 10 11" fill="none" xmlns="http://www.w3.org/2000/svg">
<g clip-path="url(#clip0)">
<path d="M9.8694 10.212V10.2116H9.87187V6.59239C9.87187 4.82187 9.49071 3.45801 7.42086 3.45801C6.42582 3.45801 5.75807 4.00405 5.48546 4.52172H5.45668V3.6233H3.49414V10.2116H5.53768V6.94929C5.53768 6.09035 5.7005 5.25978 6.76421 5.25978C7.8123 5.25978 7.82792 6.24002 7.82792 7.00439V10.212H9.8694Z" fill="#4A5860"/>
<path d="M0.166016 3.62354H2.21202V10.2118H0.166016V3.62354Z" fill="#4A5860"/>
<path d="M1.18891 0.34375C0.534733 0.34375 0.00390625 0.874577 0.00390625 1.52876C0.00390625 2.18293 0.534733 2.72486 1.18891 2.72486C1.84309 2.72486 2.37392 2.18293 2.37392 1.52876C2.37351 0.874577 1.84268 0.34375 1.18891 0.34375V0.34375Z" fill="#4A5860"/>
</g>
<defs>
<clipPath id="clip0">
<rect width="9.86819" height="9.86819" fill="white" transform="translate(0.00390625 0.34375)"/>
</clipPath>
</defs>
</svg>
