<svg width="55" height="54" viewBox="0 0 55 54" fill="none" xmlns="http://www.w3.org/2000/svg">
<g filter="url(#filter0_dd)">
<path d="M46.8962 19.869C46.1815 19.868 45.4882 20.1128 44.9325 20.5623C44.3769 21.0118 43.9927 21.6387 43.8444 22.3379H39.6678C39.5161 19.4185 38.3547 16.6426 36.3822 14.4851L39.3436 11.5289C39.9813 11.951 40.7525 12.1225 41.509 12.0103C42.2654 11.8981 42.9537 11.5102 43.4415 10.9212C43.9292 10.3322 44.1819 9.58364 44.1511 8.81953C44.1202 8.05542 43.8079 7.32969 43.2743 6.78192C42.7406 6.23416 42.0233 5.90302 41.2603 5.8522C40.4972 5.80138 39.7423 6.03447 39.1408 6.50664C38.5392 6.97881 38.1335 7.65671 38.0015 8.40998C37.8696 9.16325 38.0209 9.9387 38.4262 10.5872L35.4449 13.5684C33.2727 11.6226 30.4935 10.4892 27.58 10.3611V6.1813C28.3363 6.04158 29.0143 5.62711 29.4834 5.01763C29.9526 4.40814 30.1798 3.6467 30.1214 2.87978C30.0629 2.11286 29.723 1.39463 29.1669 0.863273C28.6108 0.331915 27.8778 0.0249595 27.1091 0.00145661C26.3403 -0.0220463 25.5899 0.239564 25.0024 0.73596C24.4149 1.23236 24.0317 1.92847 23.9265 2.69039C23.8213 3.45231 24.0016 4.22621 24.4327 4.86322C24.8637 5.50022 25.5151 5.95533 26.2615 6.14099V10.3709C23.3754 10.5409 20.6352 11.6965 18.4989 13.6445L15.5398 10.6855C15.9704 10.0484 16.1501 9.27464 16.0445 8.51299C15.939 7.75134 15.5554 7.05564 14.9678 6.55972C14.3802 6.06381 13.6299 5.8027 12.8613 5.82664C12.0928 5.85059 11.3602 6.15788 10.8046 6.68941C10.2489 7.22094 9.90948 7.93916 9.85149 8.70591C9.79351 9.47265 10.0211 10.2338 10.4905 10.8428C10.9599 11.4518 11.6379 11.8658 12.3941 12.0051C13.1503 12.1443 13.9313 11.999 14.5869 11.5971L17.571 14.571C15.6223 16.7404 14.4867 19.5188 14.358 22.432H10.2028C10.0654 21.7164 9.68472 21.0702 9.12535 20.6031C8.56599 20.136 7.86232 19.8766 7.13361 19.869C6.72291 19.8668 6.31582 19.9457 5.93573 20.1013C5.55565 20.2569 5.21007 20.4861 4.91886 20.7757C4.62765 21.0653 4.39656 21.4096 4.23887 21.7889C4.08118 22.1681 4 22.5747 4 22.9854C4 23.3961 4.08118 23.8028 4.23887 24.182C4.39656 24.5612 4.62765 24.9056 4.91886 25.1952C5.21007 25.4848 5.55565 25.714 5.93573 25.8696C6.31582 26.0252 6.72291 26.1041 7.13361 26.1019C7.82949 26.1121 8.50806 25.8847 9.05723 25.4572C9.60639 25.0297 9.9933 24.4276 10.154 23.7505H14.368C14.5294 26.6344 15.6808 29.3744 17.6279 31.508L14.6862 34.4549C14.0427 34.0222 13.2619 33.8428 12.4942 33.9513C11.7264 34.0598 11.0258 34.4485 10.5275 35.0426C10.0291 35.6367 9.76811 36.3941 9.79474 37.169C9.82136 37.944 10.1337 38.6817 10.6717 39.2402C11.2097 39.7986 11.9352 40.1383 12.7086 40.1939C13.4821 40.2495 14.2487 40.0169 14.861 39.5411C15.4732 39.0653 15.8878 38.3798 16.0249 37.6166C16.1621 36.8534 16.012 36.0664 15.6037 35.4072L18.563 32.4479C20.7142 34.3839 23.4654 35.5217 26.3557 35.6706V39.8314C25.6036 39.9941 24.9383 40.4292 24.4877 41.0529C24.0371 41.6767 23.8331 42.445 23.9149 43.2101C23.9967 43.9752 24.3586 44.683 24.9309 45.1974C25.5032 45.7118 26.2454 45.9963 27.0149 45.9963C27.7844 45.9963 28.5267 45.7118 29.099 45.1974C29.6713 44.683 30.0331 43.9752 30.1149 43.2101C30.1968 42.445 29.9927 41.6767 29.5421 41.0529C29.0915 40.4292 28.4262 39.9941 27.6741 39.8314V35.6706C30.5897 35.5205 33.363 34.3644 35.5219 32.3991L38.4664 35.3437C38.0437 35.987 37.8738 36.7639 37.9894 37.5249C38.1051 38.286 38.498 38.9774 39.0928 39.4661C39.6875 39.9548 40.442 40.2063 41.211 40.1722C41.98 40.1381 42.7092 39.8208 43.2584 39.2814C43.8076 38.742 44.1378 38.0185 44.1857 37.2502C44.2335 36.4819 43.9955 35.7231 43.5175 35.1197C43.0395 34.5164 42.3553 34.1111 41.5964 33.9818C40.8376 33.8526 40.0578 34.0086 39.407 34.4197L36.4511 31.4529C38.3889 29.3018 39.525 26.548 39.6678 23.6563H43.854C43.9805 24.2302 44.2667 24.7567 44.6796 25.1749C45.0925 25.5931 45.6152 25.8861 46.1874 26.02C46.7596 26.1539 47.3581 26.1233 47.9136 25.9317C48.4692 25.74 48.9593 25.3952 49.3273 24.937C49.6953 24.4788 49.9262 23.9259 49.9935 23.3421C50.0607 22.7582 49.9615 22.1673 49.7073 21.6374C49.4531 21.1076 49.0543 20.6604 48.5568 20.3475C48.0593 20.0346 47.4839 19.8687 46.8962 19.869ZM25.2156 3.11558C25.2157 2.75972 25.3213 2.41188 25.519 2.11603C25.7168 1.82018 25.9978 1.5896 26.3266 1.45346C26.6553 1.31732 27.0171 1.28173 27.3661 1.35119C27.7151 1.42065 28.0357 1.59203 28.2873 1.84368C28.5389 2.09532 28.7102 2.41592 28.7796 2.76494C28.849 3.11396 28.8134 3.47572 28.6772 3.80448C28.541 4.13323 28.3104 4.41423 28.0145 4.61192C27.7186 4.80962 27.3708 4.91513 27.0149 4.91513C26.5379 4.91456 26.0806 4.72481 25.7433 4.38751C25.406 4.0502 25.2162 3.5926 25.2156 3.11558ZM27.0149 34.3693C24.7698 34.3693 22.5751 33.7035 20.7084 32.4562C18.8416 31.2089 17.3867 29.436 16.5275 27.3618C15.6684 25.2876 15.4436 23.0052 15.8816 20.8032C16.3196 18.6013 17.4007 16.5786 18.9882 14.9911C20.5757 13.4036 22.5984 12.3224 24.8004 11.8844C27.0023 11.4464 29.2847 11.6712 31.3589 12.5304C33.4331 13.3896 35.206 14.8445 36.4533 16.7113C37.7006 18.578 38.3664 20.7727 38.3664 23.0178C38.363 26.0273 37.1659 28.9127 35.0379 31.0407C32.9098 33.1688 30.0245 34.3659 27.0149 34.3693Z" fill="white"/>
</g>
<path d="M29.3899 16.4292L27.0157 15.0586L20.8008 18.6467L23.1749 20.0174L29.3899 16.4292Z" fill="white"/>
<path d="M30.7072 17.1904L24.4922 20.7786L27.0146 22.2349L33.2296 18.6466L30.7072 17.1904Z" fill="white"/>
<path d="M27.6738 30.5542L33.8893 26.9657V19.7881L27.6738 23.3767V30.5542Z" fill="white"/>
<path d="M20.1406 26.9657L26.3561 30.5542V23.3767L20.1406 19.7881V26.9657Z" fill="white"/>
<defs>
<filter id="filter0_dd" x="0" y="0" width="54.014" height="53.9963" filterUnits="userSpaceOnUse" color-interpolation-filters="sRGB">
<feFlood flood-opacity="0" result="BackgroundImageFix"/>
<feColorMatrix in="SourceAlpha" type="matrix" values="0 0 0 0 0 0 0 0 0 0 0 0 0 0 0 0 0 0 127 0"/>
<feOffset dy="4"/>
<feGaussianBlur stdDeviation="2"/>
<feColorMatrix type="matrix" values="0 0 0 0 0 0 0 0 0 0 0 0 0 0 0 0 0 0 0.25 0"/>
<feBlend mode="normal" in2="BackgroundImageFix" result="effect1_dropShadow"/>
<feColorMatrix in="SourceAlpha" type="matrix" values="0 0 0 0 0 0 0 0 0 0 0 0 0 0 0 0 0 0 127 0"/>
<feOffset dy="4"/>
<feGaussianBlur stdDeviation="2"/>
<feColorMatrix type="matrix" values="0 0 0 0 0 0 0 0 0 0 0 0 0 0 0 0 0 0 0.25 0"/>
<feBlend mode="normal" in2="effect1_dropShadow" result="effect2_dropShadow"/>
<feBlend mode="normal" in="SourceGraphic" in2="effect2_dropShadow" result="shape"/>
</filter>
</defs>
</svg>
