<svg width="31" height="31" viewBox="0 0 31 31" fill="none" xmlns="http://www.w3.org/2000/svg">
<path d="M22.6266 10.0564C24.7093 10.0564 26.3977 8.36802 26.3977 6.28529C26.3977 4.20255 24.7093 2.51416 22.6266 2.51416C20.5439 2.51416 18.8555 4.20255 18.8555 6.28529C18.8555 8.36802 20.5439 10.0564 22.6266 10.0564Z" stroke="#FF7743" stroke-width="2" stroke-linecap="round" stroke-linejoin="round"/>
<path d="M7.54261 18.8557C9.62535 18.8557 11.3137 17.1673 11.3137 15.0846C11.3137 13.0019 9.62535 11.3135 7.54261 11.3135C5.45988 11.3135 3.77148 13.0019 3.77148 15.0846C3.77148 17.1673 5.45988 18.8557 7.54261 18.8557Z" stroke="#FF7743" stroke-width="2" stroke-linecap="round" stroke-linejoin="round"/>
<path d="M22.6266 27.655C24.7093 27.655 26.3977 25.9667 26.3977 23.8839C26.3977 21.8012 24.7093 20.1128 22.6266 20.1128C20.5439 20.1128 18.8555 21.8012 18.8555 23.8839C18.8555 25.9667 20.5439 27.655 22.6266 27.655Z" stroke="#FF7743" stroke-width="2" stroke-linecap="round" stroke-linejoin="round"/>
<path d="M10.7988 16.9829L19.3844 21.9859" stroke="#FF7743" stroke-width="2" stroke-linecap="round" stroke-linejoin="round"/>
<path d="M19.3719 8.18359L10.7988 13.1866" stroke="#FF7743" stroke-width="2" stroke-linecap="round" stroke-linejoin="round"/>
</svg>
