<svg width="12" height="11" viewBox="0 0 12 11" fill="none" xmlns="http://www.w3.org/2000/svg">
<path d="M10.5693 1.94099C10.3143 1.68586 10.0115 1.48347 9.67828 1.34539C9.34503 1.2073 8.98784 1.13623 8.62711 1.13623C8.26639 1.13623 7.90919 1.2073 7.57594 1.34539C7.24269 1.48347 6.93991 1.68586 6.6849 1.94099L6.15566 2.47023L5.62642 1.94099C5.11131 1.42588 4.41268 1.1365 3.6842 1.1365C2.95573 1.1365 2.2571 1.42588 1.74199 1.94099C1.22688 2.4561 0.9375 3.15473 0.9375 3.8832C0.9375 4.61167 1.22688 5.31031 1.74199 5.82542L2.27123 6.35466L6.15566 10.2391L10.0401 6.35466L10.5693 5.82542C10.8245 5.5704 11.0268 5.26762 11.1649 4.93437C11.303 4.60112 11.3741 4.24393 11.3741 3.8832C11.3741 3.52248 11.303 3.16528 11.1649 2.83203C11.0268 2.49878 10.8245 2.196 10.5693 1.94099V1.94099Z" stroke="#FF7743" stroke-linecap="round" stroke-linejoin="round"/>
</svg>
