<svg width="118" height="118" viewBox="0 0 118 118" fill="none" xmlns="http://www.w3.org/2000/svg">
<mask id="path-1-inside-1" fill="white">
<path d="M49.5888 21.2237L46.1799 19.7203C46.0253 19.148 45.8576 18.6062 45.6705 18.0836L47.5648 14.8217C47.9101 14.2252 47.9159 13.4912 47.5802 12.8893C46.647 11.2233 45.5326 9.66552 44.2573 8.24419C43.7845 7.71165 43.0581 7.48115 42.3649 7.64328L38.7788 8.46371C38.361 8.12992 37.9249 7.8081 37.4702 7.49849L37.123 3.70234C37.0586 3.00864 36.6298 2.40187 35.9976 2.1096C34.2882 1.30895 32.493 0.706091 30.6468 0.312728C29.9504 0.164515 29.2289 0.408932 28.766 0.949775L26.2632 3.85519H24.7601L22.2568 0.949531C21.7943 0.4082 21.0723 0.163539 20.3759 0.312484C18.5298 0.706091 16.7346 1.30895 15.0251 2.10935C14.3922 2.40211 13.9635 3.00986 13.8997 3.70404L13.5525 7.49825C13.1003 7.80737 12.6618 8.12968 12.244 8.46346L8.65736 7.64328C7.96415 7.48067 7.23749 7.71141 6.76502 8.24419C5.48946 9.66528 4.37505 11.2231 3.44207 12.8893C3.10633 13.4912 3.11219 14.2252 3.45745 14.8217L5.35174 18.0836C5.16471 18.6064 4.99696 19.148 4.8424 19.7203L1.43326 21.2234C0.725646 21.5362 0.269287 22.237 0.269532 23.0108V28.3176C0.269043 29.0914 0.725402 29.7922 1.43326 30.105L4.84216 31.6084C4.99672 32.1807 5.16446 32.7225 5.3515 33.245L3.45721 36.507C3.11195 37.1035 3.10609 37.8375 3.44182 38.4393C4.37505 40.1053 5.48946 41.6632 6.76477 43.0845C7.23822 43.6158 7.9639 43.8463 8.65711 43.6854L12.2433 42.865C12.6611 43.1988 13.0971 43.5206 13.5518 43.8302L13.899 47.6263C13.9635 48.32 14.3922 48.9268 15.0244 49.2191C16.7339 50.0197 18.529 50.6226 20.3752 51.0159C21.0716 51.1632 21.7926 50.919 22.2561 50.3789L24.7588 47.4737H26.262L28.7647 50.3789C29.1356 50.8104 29.6762 51.0584 30.2452 51.0579C30.3797 51.0582 30.514 51.044 30.6458 51.0159C32.492 50.6223 34.2872 50.0195 35.9967 49.2191C36.6295 48.9263 37.0583 48.3186 37.122 47.6244L37.4693 43.8302C37.9215 43.5211 38.36 43.1988 38.7778 42.865L42.3642 43.6851C43.0574 43.8468 43.7836 43.616 44.2565 43.0842C45.5321 41.6632 46.6465 40.1053 47.5795 38.4391C47.9152 37.8372 47.9094 37.1032 47.5641 36.5067L45.6698 33.2448C45.8568 32.722 46.0246 32.1805 46.1791 31.6081L49.588 30.105C50.2957 29.7922 50.752 29.0914 50.7518 28.3176V23.011C50.7527 22.2372 50.2964 21.5362 49.5888 21.2237ZM46.846 27.0455L43.7272 28.4209C43.1639 28.6705 42.751 29.171 42.613 29.7714C42.394 30.7611 42.0914 31.7304 41.7088 32.669C41.4759 33.2316 41.5181 33.8704 41.8233 34.3973L43.6107 37.478C43.1441 38.2191 42.6338 38.9318 42.0827 39.6126L38.7062 38.84C38.0924 38.696 37.447 38.8596 36.976 39.2788C36.2281 39.9354 35.4268 40.5282 34.58 41.051C34.0589 41.3738 33.7197 41.9227 33.6643 42.5331L33.3361 46.1176C32.5565 46.434 31.759 46.7048 30.9479 46.9282L28.6378 44.2463C28.2666 43.8153 27.7263 43.5675 27.1574 43.5672H23.8647C23.296 43.5675 22.7556 43.8153 22.3843 44.2463L20.0741 46.9282C19.2623 46.7048 18.4643 46.434 17.6839 46.1176L17.3558 42.5295C17.2991 41.92 16.9602 41.3721 16.4401 41.0493C15.5936 40.528 14.7927 39.9356 14.046 39.279C13.575 38.86 12.9296 38.6965 12.3158 38.8403L8.93938 39.6128C8.38828 38.9321 7.8782 38.2193 7.41134 37.4783L9.19869 34.3975C9.50366 33.8706 9.54614 33.2319 9.3132 32.6693C8.93058 31.7307 8.62806 30.7613 8.40903 29.7717C8.27107 29.1713 7.85842 28.6707 7.29487 28.4212L4.17605 27.0457V24.2834L7.29512 22.908C7.85842 22.6584 8.27132 22.1579 8.40928 21.5575C8.6283 20.5678 8.93083 19.5985 9.31345 18.6599C9.54639 18.0973 9.50415 17.4585 9.19893 16.9316L7.41159 13.8509C7.8782 13.1098 8.38828 12.3971 8.93938 11.7163L12.3158 12.4889C12.9296 12.6317 13.5745 12.4681 14.046 12.0501C14.7939 11.3935 15.5953 10.8007 16.4421 10.2779C16.9631 9.95511 17.3023 9.40621 17.3577 8.79578L17.6859 5.21132C18.4655 4.89488 19.263 4.62409 20.0741 4.40067L22.3843 7.08266C22.7554 7.51363 23.2958 7.76146 23.8647 7.76171H27.1571C27.7258 7.76146 28.2661 7.51338 28.6375 7.08266L30.9476 4.40067C31.7595 4.62409 32.5575 4.89488 33.3379 5.21132L33.666 8.79944C33.7227 9.4089 34.0616 9.95682 34.5817 10.2796C35.4282 10.8009 36.2291 11.3933 36.9758 12.0499C37.447 12.4681 38.0921 12.6317 38.706 12.4886L42.0824 11.7161C42.6335 12.3968 43.1438 13.1096 43.6104 13.8506L41.8231 16.9314C41.5181 17.4583 41.4756 18.0971 41.7086 18.6596C42.0912 19.5982 42.3937 20.5676 42.6128 21.5572C42.7507 22.1576 43.1634 22.6582 43.7269 22.9077L46.8457 24.2832V27.0455H46.846Z"/>
</mask>
<path d="M49.5888 21.2237L46.1799 19.7203C46.0253 19.148 45.8576 18.6062 45.6705 18.0836L47.5648 14.8217C47.9101 14.2252 47.9159 13.4912 47.5802 12.8893C46.647 11.2233 45.5326 9.66552 44.2573 8.24419C43.7845 7.71165 43.0581 7.48115 42.3649 7.64328L38.7788 8.46371C38.361 8.12992 37.9249 7.8081 37.4702 7.49849L37.123 3.70234C37.0586 3.00864 36.6298 2.40187 35.9976 2.1096C34.2882 1.30895 32.493 0.706091 30.6468 0.312728C29.9504 0.164515 29.2289 0.408932 28.766 0.949775L26.2632 3.85519H24.7601L22.2568 0.949531C21.7943 0.4082 21.0723 0.163539 20.3759 0.312484C18.5298 0.706091 16.7346 1.30895 15.0251 2.10935C14.3922 2.40211 13.9635 3.00986 13.8997 3.70404L13.5525 7.49825C13.1003 7.80737 12.6618 8.12968 12.244 8.46346L8.65736 7.64328C7.96415 7.48067 7.23749 7.71141 6.76502 8.24419C5.48946 9.66528 4.37505 11.2231 3.44207 12.8893C3.10633 13.4912 3.11219 14.2252 3.45745 14.8217L5.35174 18.0836C5.16471 18.6064 4.99696 19.148 4.8424 19.7203L1.43326 21.2234C0.725646 21.5362 0.269287 22.237 0.269532 23.0108V28.3176C0.269043 29.0914 0.725402 29.7922 1.43326 30.105L4.84216 31.6084C4.99672 32.1807 5.16446 32.7225 5.3515 33.245L3.45721 36.507C3.11195 37.1035 3.10609 37.8375 3.44182 38.4393C4.37505 40.1053 5.48946 41.6632 6.76477 43.0845C7.23822 43.6158 7.9639 43.8463 8.65711 43.6854L12.2433 42.865C12.6611 43.1988 13.0971 43.5206 13.5518 43.8302L13.899 47.6263C13.9635 48.32 14.3922 48.9268 15.0244 49.2191C16.7339 50.0197 18.529 50.6226 20.3752 51.0159C21.0716 51.1632 21.7926 50.919 22.2561 50.3789L24.7588 47.4737H26.262L28.7647 50.3789C29.1356 50.8104 29.6762 51.0584 30.2452 51.0579C30.3797 51.0582 30.514 51.044 30.6458 51.0159C32.492 50.6223 34.2872 50.0195 35.9967 49.2191C36.6295 48.9263 37.0583 48.3186 37.122 47.6244L37.4693 43.8302C37.9215 43.5211 38.36 43.1988 38.7778 42.865L42.3642 43.6851C43.0574 43.8468 43.7836 43.616 44.2565 43.0842C45.5321 41.6632 46.6465 40.1053 47.5795 38.4391C47.9152 37.8372 47.9094 37.1032 47.5641 36.5067L45.6698 33.2448C45.8568 32.722 46.0246 32.1805 46.1791 31.6081L49.588 30.105C50.2957 29.7922 50.752 29.0914 50.7518 28.3176V23.011C50.7527 22.2372 50.2964 21.5362 49.5888 21.2237ZM46.846 27.0455L43.7272 28.4209C43.1639 28.6705 42.751 29.171 42.613 29.7714C42.394 30.7611 42.0914 31.7304 41.7088 32.669C41.4759 33.2316 41.5181 33.8704 41.8233 34.3973L43.6107 37.478C43.1441 38.2191 42.6338 38.9318 42.0827 39.6126L38.7062 38.84C38.0924 38.696 37.447 38.8596 36.976 39.2788C36.2281 39.9354 35.4268 40.5282 34.58 41.051C34.0589 41.3738 33.7197 41.9227 33.6643 42.5331L33.3361 46.1176C32.5565 46.434 31.759 46.7048 30.9479 46.9282L28.6378 44.2463C28.2666 43.8153 27.7263 43.5675 27.1574 43.5672H23.8647C23.296 43.5675 22.7556 43.8153 22.3843 44.2463L20.0741 46.9282C19.2623 46.7048 18.4643 46.434 17.6839 46.1176L17.3558 42.5295C17.2991 41.92 16.9602 41.3721 16.4401 41.0493C15.5936 40.528 14.7927 39.9356 14.046 39.279C13.575 38.86 12.9296 38.6965 12.3158 38.8403L8.93938 39.6128C8.38828 38.9321 7.8782 38.2193 7.41134 37.4783L9.19869 34.3975C9.50366 33.8706 9.54614 33.2319 9.3132 32.6693C8.93058 31.7307 8.62806 30.7613 8.40903 29.7717C8.27107 29.1713 7.85842 28.6707 7.29487 28.4212L4.17605 27.0457V24.2834L7.29512 22.908C7.85842 22.6584 8.27132 22.1579 8.40928 21.5575C8.6283 20.5678 8.93083 19.5985 9.31345 18.6599C9.54639 18.0973 9.50415 17.4585 9.19893 16.9316L7.41159 13.8509C7.8782 13.1098 8.38828 12.3971 8.93938 11.7163L12.3158 12.4889C12.9296 12.6317 13.5745 12.4681 14.046 12.0501C14.7939 11.3935 15.5953 10.8007 16.4421 10.2779C16.9631 9.95511 17.3023 9.40621 17.3577 8.79578L17.6859 5.21132C18.4655 4.89488 19.263 4.62409 20.0741 4.40067L22.3843 7.08266C22.7554 7.51363 23.2958 7.76146 23.8647 7.76171H27.1571C27.7258 7.76146 28.2661 7.51338 28.6375 7.08266L30.9476 4.40067C31.7595 4.62409 32.5575 4.89488 33.3379 5.21132L33.666 8.79944C33.7227 9.4089 34.0616 9.95682 34.5817 10.2796C35.4282 10.8009 36.2291 11.3933 36.9758 12.0499C37.447 12.4681 38.0921 12.6317 38.706 12.4886L42.0824 11.7161C42.6335 12.3968 43.1438 13.1096 43.6104 13.8506L41.8231 16.9314C41.5181 17.4583 41.4756 18.0971 41.7086 18.6596C42.0912 19.5982 42.3937 20.5676 42.6128 21.5572C42.7507 22.1576 43.1634 22.6582 43.7269 22.9077L46.8457 24.2832V27.0455H46.846Z" fill="black" stroke="black" stroke-width="2" mask="url(#path-1-inside-1)"/>
<path d="M25.5116 15.398L25.511 15.398C19.8437 15.4046 15.2513 19.997 15.2447 25.6643V25.6649C15.2447 31.3351 19.8414 35.9318 25.5116 35.9318C31.1817 35.9318 35.7785 31.3351 35.7785 25.6649C35.7785 19.9947 31.1817 15.398 25.5116 15.398ZM12.3379 25.6646C12.3381 18.3891 18.236 12.4912 25.5116 12.4912C32.7872 12.4912 38.6852 18.3893 38.6852 25.6649C38.6852 32.9403 32.7875 38.8382 25.5122 38.8386C18.2401 38.8299 12.3468 32.9366 12.3379 25.6646Z" fill="black" stroke="black"/>
<mask id="path-3-inside-2" fill="white">
<path d="M116.03 17.7598L113.332 16.5695C113.227 16.1918 113.113 15.8294 112.991 15.4763L114.494 12.8859C114.839 12.2887 114.845 11.5542 114.509 10.9516C113.719 9.54342 112.776 8.22635 111.698 7.0238C111.225 6.49224 110.5 6.2615 109.807 6.42289L106.969 7.07142C106.69 6.85386 106.404 6.64289 106.11 6.43803L105.835 3.42787C105.772 2.73344 105.343 2.12521 104.71 1.83318C103.262 1.15682 101.742 0.646742 100.179 0.312713C99.483 0.164012 98.761 0.408429 98.2986 0.94976L96.3107 3.25793H95.357L93.3692 0.94976C92.907 0.40794 92.1847 0.163279 91.4883 0.312713C89.9256 0.646742 88.4057 1.15657 86.9577 1.83318C86.3243 2.12521 85.8953 2.73344 85.8323 3.42787L85.5576 6.43803C85.2639 6.64216 84.9777 6.85337 84.6991 7.07142L81.8606 6.42289C81.1679 6.26247 80.4432 6.49297 79.9702 7.0238C78.8917 8.22611 77.9494 9.54416 77.1603 10.9535C76.8245 11.5554 76.8301 12.2894 77.1754 12.8859L78.6768 15.4744C78.5547 15.8272 78.441 16.1922 78.3355 16.5693L75.6381 17.7598C74.9295 18.0716 74.4722 18.7729 74.4727 19.5472V23.9689C74.4722 24.7432 74.9295 25.4444 75.6381 25.7563L78.3355 26.9466C78.4405 27.3243 78.5547 27.6867 78.6768 28.0398L77.1737 30.6304C76.8284 31.2277 76.8226 31.9622 77.1583 32.5648C77.949 33.9729 78.8919 35.29 79.9702 36.4925C80.4432 37.0243 81.1693 37.2551 81.8626 37.0934L84.6972 36.443C84.9758 36.6622 85.2636 36.8742 85.5574 37.0783L85.8321 40.0885C85.8951 40.7831 86.3243 41.3911 86.9575 41.6832C88.4054 42.3595 89.9251 42.8696 91.4881 43.2036C92.1845 43.3511 92.9058 43.1069 93.369 42.5666L95.3568 40.2584H96.3105L98.2983 42.5666C98.6692 42.998 99.2098 43.2461 99.7787 43.2456C99.9133 43.2459 100.048 43.2317 100.179 43.2036C101.742 42.8696 103.262 42.3598 104.71 41.6832C105.343 41.3911 105.772 40.7829 105.835 40.0885L106.11 37.0783C106.404 36.8742 106.69 36.663 106.969 36.4449L109.807 37.0934C110.5 37.2541 111.225 37.0236 111.698 36.4925C112.776 35.2902 113.719 33.9729 114.509 32.5648C114.845 31.9622 114.839 31.2277 114.494 30.6304L112.991 28.04C113.113 27.6872 113.228 27.3246 113.332 26.9468L116.03 25.7565C116.738 25.4447 117.196 24.7434 117.195 23.9692V19.5472C117.196 18.7729 116.738 18.0716 116.03 17.7598ZM113.288 22.6968L110.883 23.7575C110.317 24.0063 109.903 24.5088 109.767 25.1119C109.588 25.9167 109.342 26.7046 109.03 27.4677C108.798 28.0307 108.84 28.6702 109.145 29.1979L110.536 31.5939C110.221 32.0823 109.881 32.5579 109.517 33.0209L106.9 32.4219C106.287 32.2786 105.643 32.4422 105.173 32.8607C104.565 33.3945 103.913 33.8762 103.224 34.3008C102.701 34.6236 102.361 35.1733 102.304 35.7849L102.051 38.5739C101.526 38.7799 100.999 38.9592 100.475 39.1081L98.6856 37.0307C98.3144 36.5997 97.7741 36.3519 97.2054 36.3516H94.4624C93.8937 36.3519 93.3533 36.6 92.9822 37.0307L91.1929 39.1081C90.6684 38.9594 90.1417 38.7799 89.6172 38.5739L89.3635 35.7849C89.3071 35.1733 88.9668 34.6236 88.444 34.3008C87.7552 33.8767 87.1037 33.3947 86.4962 32.8607C86.0233 32.4451 85.3801 32.2813 84.766 32.42L82.1507 33.0189C81.7864 32.5592 81.4467 32.0823 81.132 31.5939L82.5226 29.1979C82.8275 28.6702 82.87 28.0307 82.6371 27.4677C82.3255 26.7046 82.0791 25.9164 81.9006 25.1119C81.7646 24.5088 81.3505 24.0063 80.7848 23.7575L78.3792 22.6968V20.8198L80.7848 19.7591C81.3508 19.5103 81.7649 19.0078 81.9006 18.4047C82.0794 17.5989 82.3257 16.8095 82.6371 16.045C82.87 15.4824 82.8278 14.8437 82.5226 14.3168L81.1337 11.9207C81.4465 11.4343 81.7861 10.9574 82.1504 10.4957L84.7677 11.0947C85.3804 11.2363 86.0235 11.0729 86.494 10.6559C87.1025 10.1221 87.7544 9.64036 88.4435 9.21574C88.966 8.89295 89.3066 8.34331 89.3631 7.73166L89.6167 4.94272C90.1412 4.73664 90.6679 4.55741 91.1924 4.40847L92.9817 6.48589C93.3528 6.91686 93.8932 7.16469 94.4621 7.16494H97.2052C97.7738 7.16469 98.3144 6.91686 98.6856 6.48589L100.475 4.40847C100.999 4.55717 101.526 4.73664 102.051 4.94272L102.304 7.73166C102.361 8.34331 102.701 8.89295 103.224 9.21574C103.913 9.64036 104.565 10.1221 105.173 10.6559C105.644 11.0734 106.287 11.237 106.9 11.0947L109.517 10.4957C109.881 10.9574 110.221 11.4328 110.536 11.9226L109.145 14.3187C108.84 14.8464 108.798 15.4859 109.03 16.0489C109.342 16.812 109.588 17.6001 109.767 18.4047C109.903 19.0078 110.317 19.5103 110.883 19.7591L113.288 20.8198V22.6968Z"/>
</mask>
<path d="M116.03 17.7598L113.332 16.5695C113.227 16.1918 113.113 15.8294 112.991 15.4763L114.494 12.8859C114.839 12.2887 114.845 11.5542 114.509 10.9516C113.719 9.54342 112.776 8.22635 111.698 7.0238C111.225 6.49224 110.5 6.2615 109.807 6.42289L106.969 7.07142C106.69 6.85386 106.404 6.64289 106.11 6.43803L105.835 3.42787C105.772 2.73344 105.343 2.12521 104.71 1.83318C103.262 1.15682 101.742 0.646742 100.179 0.312713C99.483 0.164012 98.761 0.408429 98.2986 0.94976L96.3107 3.25793H95.357L93.3692 0.94976C92.907 0.40794 92.1847 0.163279 91.4883 0.312713C89.9256 0.646742 88.4057 1.15657 86.9577 1.83318C86.3243 2.12521 85.8953 2.73344 85.8323 3.42787L85.5576 6.43803C85.2639 6.64216 84.9777 6.85337 84.6991 7.07142L81.8606 6.42289C81.1679 6.26247 80.4432 6.49297 79.9702 7.0238C78.8917 8.22611 77.9494 9.54416 77.1603 10.9535C76.8245 11.5554 76.8301 12.2894 77.1754 12.8859L78.6768 15.4744C78.5547 15.8272 78.441 16.1922 78.3355 16.5693L75.6381 17.7598C74.9295 18.0716 74.4722 18.7729 74.4727 19.5472V23.9689C74.4722 24.7432 74.9295 25.4444 75.6381 25.7563L78.3355 26.9466C78.4405 27.3243 78.5547 27.6867 78.6768 28.0398L77.1737 30.6304C76.8284 31.2277 76.8226 31.9622 77.1583 32.5648C77.949 33.9729 78.8919 35.29 79.9702 36.4925C80.4432 37.0243 81.1693 37.2551 81.8626 37.0934L84.6972 36.443C84.9758 36.6622 85.2636 36.8742 85.5574 37.0783L85.8321 40.0885C85.8951 40.7831 86.3243 41.3911 86.9575 41.6832C88.4054 42.3595 89.9251 42.8696 91.4881 43.2036C92.1845 43.3511 92.9058 43.1069 93.369 42.5666L95.3568 40.2584H96.3105L98.2983 42.5666C98.6692 42.998 99.2098 43.2461 99.7787 43.2456C99.9133 43.2459 100.048 43.2317 100.179 43.2036C101.742 42.8696 103.262 42.3598 104.71 41.6832C105.343 41.3911 105.772 40.7829 105.835 40.0885L106.11 37.0783C106.404 36.8742 106.69 36.663 106.969 36.4449L109.807 37.0934C110.5 37.2541 111.225 37.0236 111.698 36.4925C112.776 35.2902 113.719 33.9729 114.509 32.5648C114.845 31.9622 114.839 31.2277 114.494 30.6304L112.991 28.04C113.113 27.6872 113.228 27.3246 113.332 26.9468L116.03 25.7565C116.738 25.4447 117.196 24.7434 117.195 23.9692V19.5472C117.196 18.7729 116.738 18.0716 116.03 17.7598ZM113.288 22.6968L110.883 23.7575C110.317 24.0063 109.903 24.5088 109.767 25.1119C109.588 25.9167 109.342 26.7046 109.03 27.4677C108.798 28.0307 108.84 28.6702 109.145 29.1979L110.536 31.5939C110.221 32.0823 109.881 32.5579 109.517 33.0209L106.9 32.4219C106.287 32.2786 105.643 32.4422 105.173 32.8607C104.565 33.3945 103.913 33.8762 103.224 34.3008C102.701 34.6236 102.361 35.1733 102.304 35.7849L102.051 38.5739C101.526 38.7799 100.999 38.9592 100.475 39.1081L98.6856 37.0307C98.3144 36.5997 97.7741 36.3519 97.2054 36.3516H94.4624C93.8937 36.3519 93.3533 36.6 92.9822 37.0307L91.1929 39.1081C90.6684 38.9594 90.1417 38.7799 89.6172 38.5739L89.3635 35.7849C89.3071 35.1733 88.9668 34.6236 88.444 34.3008C87.7552 33.8767 87.1037 33.3947 86.4962 32.8607C86.0233 32.4451 85.3801 32.2813 84.766 32.42L82.1507 33.0189C81.7864 32.5592 81.4467 32.0823 81.132 31.5939L82.5226 29.1979C82.8275 28.6702 82.87 28.0307 82.6371 27.4677C82.3255 26.7046 82.0791 25.9164 81.9006 25.1119C81.7646 24.5088 81.3505 24.0063 80.7848 23.7575L78.3792 22.6968V20.8198L80.7848 19.7591C81.3508 19.5103 81.7649 19.0078 81.9006 18.4047C82.0794 17.5989 82.3257 16.8095 82.6371 16.045C82.87 15.4824 82.8278 14.8437 82.5226 14.3168L81.1337 11.9207C81.4465 11.4343 81.7861 10.9574 82.1504 10.4957L84.7677 11.0947C85.3804 11.2363 86.0235 11.0729 86.494 10.6559C87.1025 10.1221 87.7544 9.64036 88.4435 9.21574C88.966 8.89295 89.3066 8.34331 89.3631 7.73166L89.6167 4.94272C90.1412 4.73664 90.6679 4.55741 91.1924 4.40847L92.9817 6.48589C93.3528 6.91686 93.8932 7.16469 94.4621 7.16494H97.2052C97.7738 7.16469 98.3144 6.91686 98.6856 6.48589L100.475 4.40847C100.999 4.55717 101.526 4.73664 102.051 4.94272L102.304 7.73166C102.361 8.34331 102.701 8.89295 103.224 9.21574C103.913 9.64036 104.565 10.1221 105.173 10.6559C105.644 11.0734 106.287 11.237 106.9 11.0947L109.517 10.4957C109.881 10.9574 110.221 11.4328 110.536 11.9226L109.145 14.3187C108.84 14.8464 108.798 15.4859 109.03 16.0489C109.342 16.812 109.588 17.6001 109.767 18.4047C109.903 19.0078 110.317 19.5103 110.883 19.7591L113.288 20.8198V22.6968Z" fill="black" stroke="black" stroke-width="2" mask="url(#path-3-inside-2)"/>
<path d="M95.8353 15.398L95.8347 15.398C92.324 15.4017 89.4788 18.2468 89.4751 21.7576V21.7581C89.4751 25.2708 92.3226 28.1183 95.8353 28.1183C99.3477 28.1183 102.195 25.2708 102.195 21.7581C102.195 18.2455 99.3479 15.398 95.8353 15.398ZM86.5684 21.7578C86.5685 16.6401 90.7175 12.4912 95.8353 12.4912C100.953 12.4912 105.102 16.6402 105.102 21.7581C105.102 26.8758 100.953 31.0247 95.8359 31.025C90.7201 31.019 86.5745 26.8736 86.5684 21.7578Z" fill="black" stroke="black"/>
<mask id="path-5-inside-3" fill="white">
<path d="M115.546 82.9309L112.715 82.3356C112.599 81.8453 112.467 81.355 112.321 80.8686L114.491 78.9228C115.115 78.3648 115.314 77.4719 114.985 76.7023C114.043 74.5155 112.838 72.4517 111.397 70.556C110.893 69.8894 110.021 69.6159 109.226 69.875L106.497 70.7716C106.149 70.4033 105.789 70.0429 105.421 69.6957L106.317 66.9678C106.578 66.174 106.305 65.3021 105.638 64.7988C103.743 63.3555 101.678 62.1491 99.49 61.2068C98.7201 60.8821 97.8291 61.0803 97.2695 61.7008L95.3236 63.8734C94.8372 63.7247 94.347 63.5931 93.8567 63.4766L93.2614 60.6457C93.0709 59.742 92.2737 59.095 91.35 59.0947H84.6889C83.7652 59.095 82.968 59.7418 82.7776 60.6457L82.1823 63.4766C81.692 63.5931 81.2017 63.7247 80.7153 63.8715L78.7695 61.7005C78.2101 61.0798 77.3188 60.8816 76.549 61.2066C74.3621 62.1488 72.2984 63.3538 70.4026 64.7947C69.7343 65.2979 69.4606 66.1706 69.7216 66.9656L70.6182 69.6955C70.25 70.0427 69.8896 70.4031 69.5424 70.7713L66.8145 69.8747C66.0207 69.6176 65.151 69.8898 64.6455 70.5538C63.2022 72.4493 61.9958 74.5137 61.0535 76.702C60.7253 77.4717 60.9241 78.3646 61.5475 78.9225L63.7201 80.8683C63.5714 81.3547 63.4398 81.845 63.3233 82.3353L60.4924 82.9306C59.5887 83.1211 58.9417 83.9183 58.9414 84.842V91.5033C58.9417 92.427 59.5885 93.2242 60.4924 93.4147L63.3233 94.01C63.4398 94.5003 63.5714 94.9906 63.7182 95.4769L61.5472 97.4228C60.9238 97.9807 60.7251 98.8736 61.0533 99.6433C61.9955 101.83 63.2005 103.894 64.6414 105.79C65.1458 106.456 66.0173 106.73 66.8123 106.471L69.5422 105.574C69.8894 105.942 70.2498 106.303 70.618 106.65L69.7214 109.378C69.4604 110.172 69.7334 111.043 70.4004 111.547C72.296 112.99 74.3604 114.196 76.5487 115.139C77.3181 115.469 78.2123 115.27 78.7692 114.645L80.715 112.472C81.2014 112.621 81.6917 112.752 82.182 112.869L82.7773 115.7C82.9678 116.603 83.765 117.251 84.6887 117.251H91.35C92.2737 117.251 93.0709 116.604 93.2614 115.7L93.8567 112.869C94.347 112.752 94.8372 112.621 95.3236 112.474L97.2695 114.645C97.8264 115.27 98.7206 115.469 99.49 115.139C101.677 114.197 103.741 112.992 105.636 111.551C106.305 111.048 106.578 110.175 106.317 109.38L105.421 106.65C105.789 106.303 106.149 105.942 106.497 105.574L109.224 106.471C110.018 106.73 110.889 106.457 111.393 105.792C112.837 103.896 114.043 101.832 114.985 99.6435C115.314 98.8739 115.115 97.9809 114.491 97.423L112.319 95.4772C112.468 94.9908 112.599 94.5005 112.716 94.0102L115.547 93.4149C116.45 93.2244 117.097 92.4272 117.098 91.5035V84.8423C117.097 83.9188 116.45 83.1213 115.546 82.9309ZM113.19 89.9184L110.663 90.4507C109.885 90.6142 109.284 91.2327 109.142 92.0148C108.931 93.1734 108.624 94.3122 108.225 95.4201C107.956 96.1687 108.168 97.0055 108.761 97.5356L110.81 99.3708C110.3 100.388 109.723 101.371 109.083 102.312L106.502 101.463C105.746 101.216 104.916 101.451 104.4 102.057C103.638 102.958 102.802 103.794 101.901 104.557C101.296 105.073 101.062 105.903 101.31 106.658L102.159 109.237C101.218 109.877 100.235 110.454 99.2175 110.963L97.3806 108.914C96.8485 108.323 96.0122 108.111 95.2631 108.378C94.157 108.779 93.0191 109.086 91.8618 109.296C91.0797 109.437 90.4609 110.038 90.2976 110.816L89.7653 113.344H86.2744L85.7421 110.816C85.5785 110.038 84.96 109.437 84.1779 109.296C83.0193 109.085 81.8805 108.778 80.7727 108.378H80.7729C80.0243 108.114 79.1897 108.325 78.6574 108.914L76.8222 110.963C75.8045 110.454 74.8217 109.877 73.8806 109.237L74.7296 106.656C74.9777 105.9 74.743 105.069 74.1363 104.554C73.235 103.792 72.3985 102.956 71.6355 102.055C71.1195 101.451 70.2906 101.217 69.5351 101.464L66.9559 102.313C66.3154 101.372 65.7387 100.389 65.2296 99.371L67.2784 97.5341C67.8715 97.0033 68.0835 96.1658 67.8144 95.4166C67.414 94.3105 67.107 93.1727 66.8968 92.0153C66.7554 91.2332 66.1543 90.6145 65.3763 90.4511L62.8487 89.9188V86.4279L65.3763 85.8956C66.1543 85.732 66.7554 85.1135 66.8968 84.3314C67.1078 83.1728 67.4147 82.034 67.8144 80.9262C68.0835 80.1776 67.8713 79.3408 67.2784 78.8107L65.2296 76.9757C65.7392 75.958 66.3159 74.9752 66.9559 74.0342L69.5368 74.8832C70.293 75.13 71.1234 74.8956 71.6389 74.2898C72.4012 73.3886 73.237 72.5521 74.1377 71.789C74.7431 71.2738 74.9767 70.4439 74.7291 69.6886L73.8801 67.1097C74.8212 66.4692 75.8037 65.8925 76.8217 65.3834L78.6586 67.4323C79.1902 68.0241 80.027 68.2358 80.7761 67.9682C81.8822 67.5678 83.02 67.2608 84.1774 67.0506C84.9595 66.9092 85.5782 66.3081 85.7416 65.5301L86.2739 63.0025H89.7648L90.2971 65.5301C90.4607 66.3081 91.0792 66.9092 91.8613 67.0506C93.0199 67.2616 94.1587 67.5685 95.2663 67.9682C96.0149 68.2363 96.8512 68.0244 97.3818 67.4323L99.217 65.3834C100.235 65.893 101.217 66.4697 102.159 67.1097L101.31 69.6906C101.061 70.4468 101.296 71.278 101.903 71.7927C102.804 72.555 103.641 73.3908 104.404 74.2915C104.921 74.8937 105.749 75.1269 106.504 74.8829L109.083 74.0339C109.723 74.975 110.3 75.9575 110.809 76.9755L108.76 78.8124C108.167 79.3432 107.955 80.1807 108.225 80.9299C108.625 82.036 108.932 83.1738 109.142 84.3312C109.283 85.1133 109.885 85.732 110.663 85.8954L113.19 86.4277V89.9184Z"/>
</mask>
<path d="M115.546 82.9309L112.715 82.3356C112.599 81.8453 112.467 81.355 112.321 80.8686L114.491 78.9228C115.115 78.3648 115.314 77.4719 114.985 76.7023C114.043 74.5155 112.838 72.4517 111.397 70.556C110.893 69.8894 110.021 69.6159 109.226 69.875L106.497 70.7716C106.149 70.4033 105.789 70.0429 105.421 69.6957L106.317 66.9678C106.578 66.174 106.305 65.3021 105.638 64.7988C103.743 63.3555 101.678 62.1491 99.49 61.2068C98.7201 60.8821 97.8291 61.0803 97.2695 61.7008L95.3236 63.8734C94.8372 63.7247 94.347 63.5931 93.8567 63.4766L93.2614 60.6457C93.0709 59.742 92.2737 59.095 91.35 59.0947H84.6889C83.7652 59.095 82.968 59.7418 82.7776 60.6457L82.1823 63.4766C81.692 63.5931 81.2017 63.7247 80.7153 63.8715L78.7695 61.7005C78.2101 61.0798 77.3188 60.8816 76.549 61.2066C74.3621 62.1488 72.2984 63.3538 70.4026 64.7947C69.7343 65.2979 69.4606 66.1706 69.7216 66.9656L70.6182 69.6955C70.25 70.0427 69.8896 70.4031 69.5424 70.7713L66.8145 69.8747C66.0207 69.6176 65.151 69.8898 64.6455 70.5538C63.2022 72.4493 61.9958 74.5137 61.0535 76.702C60.7253 77.4717 60.9241 78.3646 61.5475 78.9225L63.7201 80.8683C63.5714 81.3547 63.4398 81.845 63.3233 82.3353L60.4924 82.9306C59.5887 83.1211 58.9417 83.9183 58.9414 84.842V91.5033C58.9417 92.427 59.5885 93.2242 60.4924 93.4147L63.3233 94.01C63.4398 94.5003 63.5714 94.9906 63.7182 95.4769L61.5472 97.4228C60.9238 97.9807 60.7251 98.8736 61.0533 99.6433C61.9955 101.83 63.2005 103.894 64.6414 105.79C65.1458 106.456 66.0173 106.73 66.8123 106.471L69.5422 105.574C69.8894 105.942 70.2498 106.303 70.618 106.65L69.7214 109.378C69.4604 110.172 69.7334 111.043 70.4004 111.547C72.296 112.99 74.3604 114.196 76.5487 115.139C77.3181 115.469 78.2123 115.27 78.7692 114.645L80.715 112.472C81.2014 112.621 81.6917 112.752 82.182 112.869L82.7773 115.7C82.9678 116.603 83.765 117.251 84.6887 117.251H91.35C92.2737 117.251 93.0709 116.604 93.2614 115.7L93.8567 112.869C94.347 112.752 94.8372 112.621 95.3236 112.474L97.2695 114.645C97.8264 115.27 98.7206 115.469 99.49 115.139C101.677 114.197 103.741 112.992 105.636 111.551C106.305 111.048 106.578 110.175 106.317 109.38L105.421 106.65C105.789 106.303 106.149 105.942 106.497 105.574L109.224 106.471C110.018 106.73 110.889 106.457 111.393 105.792C112.837 103.896 114.043 101.832 114.985 99.6435C115.314 98.8739 115.115 97.9809 114.491 97.423L112.319 95.4772C112.468 94.9908 112.599 94.5005 112.716 94.0102L115.547 93.4149C116.45 93.2244 117.097 92.4272 117.098 91.5035V84.8423C117.097 83.9188 116.45 83.1213 115.546 82.9309ZM113.19 89.9184L110.663 90.4507C109.885 90.6142 109.284 91.2327 109.142 92.0148C108.931 93.1734 108.624 94.3122 108.225 95.4201C107.956 96.1687 108.168 97.0055 108.761 97.5356L110.81 99.3708C110.3 100.388 109.723 101.371 109.083 102.312L106.502 101.463C105.746 101.216 104.916 101.451 104.4 102.057C103.638 102.958 102.802 103.794 101.901 104.557C101.296 105.073 101.062 105.903 101.31 106.658L102.159 109.237C101.218 109.877 100.235 110.454 99.2175 110.963L97.3806 108.914C96.8485 108.323 96.0122 108.111 95.2631 108.378C94.157 108.779 93.0191 109.086 91.8618 109.296C91.0797 109.437 90.4609 110.038 90.2976 110.816L89.7653 113.344H86.2744L85.7421 110.816C85.5785 110.038 84.96 109.437 84.1779 109.296C83.0193 109.085 81.8805 108.778 80.7727 108.378H80.7729C80.0243 108.114 79.1897 108.325 78.6574 108.914L76.8222 110.963C75.8045 110.454 74.8217 109.877 73.8806 109.237L74.7296 106.656C74.9777 105.9 74.743 105.069 74.1363 104.554C73.235 103.792 72.3985 102.956 71.6355 102.055C71.1195 101.451 70.2906 101.217 69.5351 101.464L66.9559 102.313C66.3154 101.372 65.7387 100.389 65.2296 99.371L67.2784 97.5341C67.8715 97.0033 68.0835 96.1658 67.8144 95.4166C67.414 94.3105 67.107 93.1727 66.8968 92.0153C66.7554 91.2332 66.1543 90.6145 65.3763 90.4511L62.8487 89.9188V86.4279L65.3763 85.8956C66.1543 85.732 66.7554 85.1135 66.8968 84.3314C67.1078 83.1728 67.4147 82.034 67.8144 80.9262C68.0835 80.1776 67.8713 79.3408 67.2784 78.8107L65.2296 76.9757C65.7392 75.958 66.3159 74.9752 66.9559 74.0342L69.5368 74.8832C70.293 75.13 71.1234 74.8956 71.6389 74.2898C72.4012 73.3886 73.237 72.5521 74.1377 71.789C74.7431 71.2738 74.9767 70.4439 74.7291 69.6886L73.8801 67.1097C74.8212 66.4692 75.8037 65.8925 76.8217 65.3834L78.6586 67.4323C79.1902 68.0241 80.027 68.2358 80.7761 67.9682C81.8822 67.5678 83.02 67.2608 84.1774 67.0506C84.9595 66.9092 85.5782 66.3081 85.7416 65.5301L86.2739 63.0025H89.7648L90.2971 65.5301C90.4607 66.3081 91.0792 66.9092 91.8613 67.0506C93.0199 67.2616 94.1587 67.5685 95.2663 67.9682C96.0149 68.2363 96.8512 68.0244 97.3818 67.4323L99.217 65.3834C100.235 65.893 101.217 66.4697 102.159 67.1097L101.31 69.6906C101.061 70.4468 101.296 71.278 101.903 71.7927C102.804 72.555 103.641 73.3908 104.404 74.2915C104.921 74.8937 105.749 75.1269 106.504 74.8829L109.083 74.0339C109.723 74.975 110.3 75.9575 110.809 76.9755L108.76 78.8124C108.167 79.3432 107.955 80.1807 108.225 80.9299C108.625 82.036 108.932 83.1738 109.142 84.3312C109.283 85.1133 109.885 85.732 110.663 85.8954L113.19 86.4277V89.9184Z" fill="black" stroke="black" stroke-width="2" mask="url(#path-5-inside-3)"/>
<path d="M88.0193 102.347H88.0199C95.8478 102.347 102.194 96.0011 102.194 88.1732C102.194 80.3453 95.8478 73.9995 88.0199 73.9995C80.192 73.9995 73.8462 80.3453 73.8462 88.1732L73.8462 88.1738C73.8556 95.9974 80.1958 102.338 88.0193 102.347ZM70.9395 88.1732C70.9395 78.7398 78.5867 71.0928 88.0199 71.0928C97.4529 71.0928 105.1 78.7395 105.1 88.1727C105.09 97.6021 97.4488 105.243 88.0194 105.254C78.5865 105.253 70.9395 97.6062 70.9395 88.1732Z" fill="black" stroke="black"/>
<path d="M55.3125 25.1646V22.2578H69.9396V25.1646H55.3125Z" fill="black" stroke="black"/>
<path d="M53.4309 84.8839L53.4313 84.884C53.7749 85.031 54.0486 85.3047 54.1956 85.6483C54.5109 86.3859 54.1686 87.2395 53.4314 87.5546L53.4309 87.5548L39.7572 93.4149L39.7555 93.4157C39.5764 93.4932 39.3826 93.5331 39.1864 93.5327H39.1855H39.1855H39.1854H39.1854H39.1854H39.1853H39.1853H39.1853H39.1852H39.1852H39.1852H39.1851H39.1851H39.1851H39.185H39.185H39.185H39.1849H39.1849H39.1849H39.1849H39.1848H39.1848H39.1848H39.1847H39.1847H39.1847H39.1846H39.1846H39.1846H39.1845H39.1845H39.1845H39.1844H39.1844H39.1844H39.1844H39.1843H39.1843H39.1843H39.1842H39.1842H39.1842H39.1841H39.1841H39.1841H39.184H39.184H39.184H39.1839H39.1839H39.1839H39.1838H39.1838H39.1838H39.1838H39.1837H39.1837H39.1837H39.1836H39.1836H39.1836H39.1835H39.1835H39.1835H39.1834H39.1834H39.1834H39.1834H39.1833H39.1833H39.1833H39.1832H39.1832H39.1832C38.3813 93.5322 37.7316 92.8816 37.7321 92.0797V92.0793V88.1726V87.6726H37.2321H11.8381H11.8381H11.8381H11.8381H11.838H11.838H11.838H11.8379H11.8379H11.8379H11.8378H11.8378H11.8378H11.8378H11.8377H11.8377H11.8377H11.8376H11.8376H11.8376H11.8375H11.8375H11.8375H11.8375H11.8374H11.8374H11.8374H11.8373H11.8373H11.8373H11.8372H11.8372H11.8372H11.8372H11.8371H11.8371H11.8371H11.837H11.837H11.837H11.8369H11.8369H11.8369H11.8369H11.8368H11.8368H11.8368H11.8367H11.8367H11.8367H11.8366H11.8366H11.8366H11.8366H11.8365H11.8365H11.8365H11.8364H11.8364H11.8364H11.8363H11.8363C11.034 87.672 10.3842 87.0215 10.3848 86.2195V86.2192V53.5117H13.2915V84.2658V84.7658H13.7915H37.2321H37.7321V84.2658V80.3591V80.3586C37.7319 80.1616 37.772 79.9664 37.8498 79.785C38.1662 79.0481 39.0201 78.7072 39.7569 79.0236L39.7572 79.0237L53.4309 84.8839ZM40.6389 89.117V89.8753L41.3359 89.5766L48.0965 86.679L49.1688 86.2194L48.0965 85.7599L41.3359 82.8623L40.6389 82.5636V83.3218V89.117Z" fill="black" stroke="black"/>
<mask id="path-9-inside-4" fill="white">
<path d="M94.3311 81.0615L85.9338 91.1393L81.5863 86.792L78.8242 89.5541L84.6844 95.4143C85.0501 95.7812 85.5473 95.9871 86.0654 95.9866C86.094 95.9866 86.1245 95.9866 86.1531 95.9846C86.7017 95.96 87.2145 95.706 87.5666 95.2846L97.3335 83.5643L94.3311 81.0615Z"/>
</mask>
<path d="M94.3311 81.0615L85.9338 91.1393L81.5863 86.792L78.8242 89.5541L84.6844 95.4143C85.0501 95.7812 85.5473 95.9871 86.0654 95.9866C86.094 95.9866 86.1245 95.9866 86.1531 95.9846C86.7017 95.96 87.2145 95.706 87.5666 95.2846L97.3335 83.5643L94.3311 81.0615Z" fill="black"/>
<path d="M94.3311 81.0615L94.9715 80.2934L94.2032 79.653L93.5629 80.4214L94.3311 81.0615ZM85.9338 91.1393L85.2267 91.8464L86.001 92.6207L86.702 91.7794L85.9338 91.1393ZM81.5863 86.792L82.2934 86.0849L81.5863 85.3778L80.8792 86.0849L81.5863 86.792ZM78.8242 89.5541L78.1171 88.847L77.41 89.5541L78.1171 90.2612L78.8242 89.5541ZM84.6844 95.4143L85.3927 94.7083L85.3915 94.7072L84.6844 95.4143ZM86.0654 95.9866V94.9866L86.0645 94.9866L86.0654 95.9866ZM86.1531 95.9846L86.1082 94.9857L86.0965 94.9862L86.0848 94.987L86.1531 95.9846ZM87.5666 95.2846L88.334 95.9257L88.3348 95.9248L87.5666 95.2846ZM97.3335 83.5643L98.1017 84.2045L98.7418 83.4364L97.9738 82.7962L97.3335 83.5643ZM93.5629 80.4214L85.1655 90.4991L86.702 91.7794L95.0994 81.7017L93.5629 80.4214ZM86.6409 90.4322L82.2934 86.0849L80.8792 87.4991L85.2267 91.8464L86.6409 90.4322ZM80.8792 86.0849L78.1171 88.847L79.5313 90.2612L82.2934 87.4991L80.8792 86.0849ZM78.1171 90.2612L83.9773 96.1214L85.3915 94.7072L79.5313 88.847L78.1171 90.2612ZM83.9761 96.1202C84.53 96.6759 85.2825 96.9873 86.0663 96.9866L86.0645 94.9866C85.8121 94.9868 85.5703 94.8866 85.3927 94.7083L83.9761 96.1202ZM86.0654 96.9866C86.0871 96.9866 86.1526 96.987 86.2213 96.9823L86.0848 94.987C86.0897 94.9866 86.0928 94.9865 86.0939 94.9865C86.095 94.9864 86.0947 94.9865 86.0927 94.9865C86.0907 94.9865 86.0877 94.9866 86.083 94.9866C86.0781 94.9866 86.0729 94.9866 86.0654 94.9866V96.9866ZM86.198 96.9836C87.027 96.9464 87.8019 96.5626 88.334 95.9257L86.7992 94.6435C86.627 94.8495 86.3765 94.9736 86.1082 94.9857L86.198 96.9836ZM88.3348 95.9248L98.1017 84.2045L96.5653 82.9241L86.7984 94.6444L88.3348 95.9248ZM97.9738 82.7962L94.9715 80.2934L93.6908 81.8296L96.6932 84.3324L97.9738 82.7962Z" fill="black" mask="url(#path-9-inside-4)"/>
</svg>
