<svg width="92" height="102" viewBox="0 0 92 102" fill="none" xmlns="http://www.w3.org/2000/svg">
<path d="M72.364 72.0844L63.0558 68.9823L59.7142 62.2989C62.7246 59.2349 64.8148 55.1806 65.5196 50.9519L65.9364 48.454H69.5005C72.74 48.454 75.3756 45.8184 75.3756 42.5788V30.241C75.3756 14.0432 62.1976 0.865234 45.9999 0.865234C29.7605 0.865234 16.6241 14.0054 16.6241 30.241V42.5788C16.6241 45.1318 18.2615 47.3087 20.5409 48.1171V50.4123C20.5409 53.6519 23.1765 56.2875 26.416 56.2875H28.1359C28.9848 58.1317 30.0837 59.8398 31.4209 61.3742C31.6982 61.693 31.9874 62.002 32.2837 62.3027L28.9439 68.9823L19.6355 72.0846C8.8125 75.6935 0.957031 87.0872 0.957031 99.1761C0.957031 100.258 1.8338 101.134 2.91541 101.134H89.0843C90.1657 101.134 91.0427 100.258 91.0427 99.1761C91.0427 87.0872 83.1874 75.6935 72.364 72.0844ZM71.4588 42.5788C71.4588 43.6587 70.5803 44.5372 69.5005 44.5372H66.5116C67.0094 40.6811 67.3411 36.5777 67.4745 32.5362C67.4784 32.4222 67.4816 32.3114 67.4851 32.1994H71.4588V42.5788ZM22.4992 44.5372C21.4194 44.5372 20.5409 43.6587 20.5409 42.5788V32.1994H24.516C24.5225 32.4036 24.5293 32.6089 24.5369 32.8155C24.5371 32.8225 24.5375 32.8294 24.5377 32.8364C24.5377 32.837 24.5377 32.8376 24.5377 32.8382C24.6748 36.7691 25.0023 40.7659 25.4887 44.537H22.4992V44.5372ZM26.416 52.3707C25.3362 52.3707 24.4576 51.4922 24.4576 50.4123V48.454H26.0631L26.4799 50.9527C26.5594 51.4276 26.6571 51.9007 26.7701 52.3707H26.416ZM24.461 28.2826H20.6153C21.6072 15.1573 32.5608 4.782 45.9999 4.782C59.3791 4.782 70.3809 15.156 71.3842 28.2826H67.5389C67.3979 17.467 58.5905 8.69877 47.7528 8.69877H44.2473C33.4098 8.69877 24.6018 17.467 24.461 28.2826ZM44.2471 12.6155H47.7526C56.5279 12.6155 63.6304 19.7932 63.6253 28.5587C63.6253 29.175 63.6204 29.7116 63.61 30.1999C63.61 30.2061 63.6098 30.2126 63.6098 30.2191L61.1603 29.8691C54.5057 28.9189 48.2224 25.7772 43.4679 21.0227C43.1005 20.6555 42.6024 20.4491 42.0831 20.4491C36.8237 20.4491 31.789 22.8453 28.461 26.8937C29.2811 18.9194 36.0225 12.6155 44.2471 12.6155ZM30.8302 52.3707C29.8498 49.1094 28.7281 39.5133 28.4802 33.364L31.1159 29.8495C33.5367 26.6229 37.3029 24.6181 41.3091 24.388C46.5805 29.4046 53.4 32.7174 60.6065 33.7463L63.4896 34.1583C63.2969 38.2484 62.903 42.3528 62.3388 46.1276C62.3386 46.1288 62.3385 46.1301 62.3383 46.1315C62.1589 47.3451 62.0175 48.1261 61.6563 50.3076C60.6192 56.5284 55.9774 62.1538 49.8498 63.6859C47.328 64.3155 44.6713 64.3153 42.1508 63.6859C38.3247 62.7294 34.8165 60.0821 32.5524 56.2875H36.5448C37.3532 58.5668 39.5299 60.2043 42.0831 60.2043H45.9999C49.2459 60.2043 51.875 57.5753 51.875 54.3291C51.875 51.0895 49.2394 48.454 45.9999 48.454H42.0831C39.4731 48.454 37.3285 50.1397 36.5414 52.3707H30.8302ZM41.9184 67.6492C43.2616 67.9322 44.6311 68.077 45.9999 68.077C47.0713 68.077 48.1429 67.9873 49.2024 67.8134L45.7419 71.473L41.9184 67.6492ZM43.0495 74.3201L36.8379 80.8889C35.1279 77.6157 33.6585 74.209 32.4533 70.7216L34.7859 66.0563L43.0495 74.3201ZM56.8818 65.3928L59.546 70.7214C58.3388 74.2147 56.8691 77.6225 55.1608 80.8918L48.5125 74.2435L56.8818 65.3928ZM40.1247 54.3291C40.1247 53.2479 41.0017 52.3707 42.0831 52.3707H45.9999C47.0797 52.3707 47.9582 53.2493 47.9582 54.3291C47.9582 55.4105 47.0811 56.2875 45.9999 56.2875H42.0831C41.0032 56.2875 40.1247 55.409 40.1247 54.3291ZM4.95213 97.2177C5.72824 87.5161 12.1848 78.6979 20.8742 75.8002L29.1178 73.053C30.6281 77.2293 32.4991 81.2884 34.6919 85.1441C34.6957 85.1507 34.6992 85.1574 34.7029 85.1639C34.7029 85.164 34.7031 85.164 34.7031 85.1642C36.3053 87.9822 38.1085 90.7358 40.0636 93.3501L42.4728 97.2177H4.95213ZM45.9999 95.472L43.3439 91.208C43.3141 91.1602 43.2824 91.1138 43.2487 91.0688C41.6628 88.9533 40.1835 86.7409 38.8361 84.4765L45.8203 77.0906L53.1795 84.4498C51.8231 86.7308 50.3386 88.9523 48.7514 91.0684C48.6554 91.1963 48.7915 90.9947 45.9999 95.472ZM49.5269 97.2177L51.9359 93.3503C53.8996 90.7261 55.7158 87.9502 57.334 85.0992C57.3438 85.082 57.353 85.0644 57.3628 85.0471C57.364 85.045 57.3651 85.043 57.3663 85.0409C59.5313 81.222 61.3828 77.1981 62.8819 73.053L71.1253 75.8002C79.8149 78.6979 86.2715 87.5161 87.0476 97.2177H49.5269Z" fill="black"/>
</svg>
