<svg width="110" height="109" viewBox="0 0 110 109" fill="none" xmlns="http://www.w3.org/2000/svg">
<path d="M78.6744 31.7919L77.8365 31.3369L76.9986 31.7919C70.2743 35.4351 62.6629 37.3867 54.9883 37.4324L53.2422 37.4429V51.9788C53.2422 67.221 62.8842 80.9541 77.2357 86.1502L77.8347 86.3662L78.4337 86.1502C92.7852 80.9541 102.427 67.221 102.427 51.9788V37.4429L100.681 37.4324C93.0119 37.3867 85.4022 35.4351 78.6744 31.7919ZM98.9141 51.9788C98.9141 65.5346 90.47 77.7694 77.8347 82.6229C65.1994 77.7676 56.7554 65.5329 56.7554 51.9788V40.9034C64.0945 40.603 71.33 38.6883 77.8365 35.3227C84.3447 38.6883 91.5785 40.603 98.9141 40.9034V51.9788Z" fill="black"/>
<path d="M109.455 30.4073H100.972C93.0779 30.4073 85.4349 28.0938 78.8002 23.6689L77.769 23.0699L76.8011 23.7146C72.8013 26.3829 68.3975 28.273 63.7829 29.3516V25.5028L59.1542 24.4137C58.571 22.3778 57.7577 20.4175 56.7284 18.5607L59.2333 14.5152L49.8126 5.09454L45.7671 7.59947C43.9104 6.5701 41.95 5.75679 39.9141 5.17359L38.825 0.544922H25.5028L24.4137 5.17359C22.3778 5.75679 20.4175 6.5701 18.5607 7.59947L14.5152 5.09454L5.09454 14.5152L7.59947 18.5607C6.5701 20.4175 5.75679 22.3778 5.17359 24.4137L0.544922 25.5028V38.825L5.17359 39.9141C5.75679 41.95 6.5701 43.9104 7.59947 45.7671L5.09454 49.8126L14.5152 59.2333L18.5607 56.7284C20.4175 57.7577 22.3778 58.571 24.4137 59.1542L25.5028 63.7829H38.825L39.9141 59.1542C41.95 58.571 43.9104 57.7577 45.7671 56.7284L46.5769 57.229C47.5184 64.8228 50.4379 71.9459 54.912 77.9219L49.0028 99.5896L57.6769 97.4202L64.2414 108.362L70.1313 90.6924C72.4219 91.85 74.8232 92.8302 77.3404 93.5715L77.8358 93.7191L78.3312 93.5733C80.8484 92.832 83.2497 91.8518 85.5403 90.6942L91.4302 108.364L97.9947 97.422L106.669 99.5914L100.76 77.9236C106.252 70.5845 109.455 61.5309 109.455 51.9785V30.4073ZM45.8058 52.6214L44.887 53.18C42.7528 54.4729 40.4481 55.4302 38.031 56.0204L36.9841 56.2769L36.0425 60.2697H28.2853L27.3455 56.2769L26.2986 56.0204C23.8815 55.4302 21.5768 54.4729 19.4425 53.18L18.5238 52.6214L15.0352 54.7803L9.54931 49.2944L11.7082 45.8057L11.1496 44.887C9.85672 42.7528 8.89936 40.4481 8.30914 38.031L8.05268 36.9841L4.05814 36.0425V28.2853L8.05092 27.3455L8.30738 26.2986C8.89761 23.8815 9.85496 21.5768 11.1478 19.4425L11.7064 18.5238L9.54755 15.0334L15.0334 9.54755L18.5221 11.7064L19.4408 11.1478C21.5751 9.85496 23.8797 8.8976 26.2968 8.30738L27.3438 8.05092L28.2853 4.05814H36.0425L36.9823 8.05092L38.0292 8.30738C40.4463 8.8976 42.751 9.85496 44.8853 11.1478L45.804 11.7064L49.2926 9.54755L54.7785 15.0334L52.6196 18.5221L53.1782 19.4408C54.4711 21.5751 55.4285 23.8797 56.0187 26.2968L56.2752 27.3438L60.2697 28.2853V30.0103C58.434 30.2668 56.5755 30.4073 54.6995 30.4073H53.1537C52.256 19.6041 43.1954 11.0846 32.1639 11.0846C20.5404 11.0846 11.0846 20.5404 11.0846 32.1639C11.0846 43.7874 20.5404 53.2432 32.1639 53.2432C37.3986 53.2432 42.3874 51.2776 46.2168 47.854V51.9802C46.2168 52.2894 46.2484 52.5933 46.2554 52.9007L45.8058 52.6214ZM46.2168 30.4073V42.6667C42.9021 47.0898 37.699 49.73 32.1639 49.73C22.478 49.73 14.5978 41.8499 14.5978 32.1639C14.5978 22.478 22.478 14.5978 32.1639 14.5978C41.2561 14.5978 48.7569 21.5434 49.6404 30.4073H46.2168ZM63.3244 100.006L59.3492 93.3818L53.9705 94.7256L57.6576 81.2032C60.3839 84.1912 63.5247 86.805 67.0098 88.9481L63.3244 100.006ZM101.701 94.7256L96.3224 93.3818L92.3472 100.006L88.6618 88.9481C92.1469 86.805 95.2877 84.1912 98.014 81.2032L101.701 94.7256ZM105.942 51.9785C105.942 69.3584 94.4112 84.9413 77.8358 90.0548C61.2604 84.9413 49.73 69.3584 49.73 51.9785V33.9205H54.6995C62.9081 33.9205 70.8656 31.6211 77.834 27.2313C84.7691 31.6123 92.7459 33.9205 100.972 33.9205H105.942V51.9785Z" fill="black"/>
<path d="M70.3494 54.9049L62.5957 62.6586L73.8626 73.9255L95.6692 52.1189L87.9155 44.3652L73.8626 58.4181L70.3494 54.9049ZM90.7015 52.1189L73.8626 68.9578L67.5634 62.6586L70.3494 59.8726L73.8626 63.3858L87.9155 49.3329L90.7015 52.1189Z" fill="black"/>
</svg>
