<svg width="102" height="99" viewBox="0 0 102 99" fill="none" xmlns="http://www.w3.org/2000/svg">
<path d="M51.0002 18.6156C56.0344 18.6156 60.1156 14.5344 60.1156 9.50017C60.1156 4.46593 56.0344 0.384766 51.0002 0.384766C45.9659 0.384766 41.8848 4.46593 41.8848 9.50017C41.8848 14.5344 45.9657 18.6156 51.0002 18.6156ZM51.0002 4.94247C53.5174 4.94247 55.5579 6.98294 55.5579 9.50017C55.5579 12.0174 53.5174 14.0579 51.0002 14.0579C48.4829 14.0579 46.4425 12.0174 46.4425 9.50017C46.4425 6.98294 48.4829 4.94247 51.0002 4.94247Z" fill="black"/>
<path d="M54.3099 20.0938C54.2696 20.0945 54.2294 20.0956 54.1893 20.0967H47.8086C40.952 19.9067 35.2397 25.3113 35.0497 32.1679C35.0486 32.208 35.0477 32.2484 35.0469 32.2885V34.1115C35.0469 35.3649 36.3003 36.0486 37.5536 36.0486H64.444C65.6974 36.0486 66.9508 35.3649 66.9508 34.1115V32.2885C66.8274 25.4304 61.1679 19.9706 54.3099 20.0938ZM39.8325 31.4907C40.0604 28.0725 43.5926 24.6542 47.8084 24.6542H54.1891C58.4051 24.6542 61.9373 28.0723 62.165 31.4907H39.8325Z" fill="black"/>
<path d="M13.9683 58.2673C15.227 58.2673 16.2472 57.2471 16.2472 55.9885C16.24 45.4468 21.018 35.4716 29.2366 28.8702C30.1382 27.9919 30.1569 26.5492 29.2787 25.6476C28.5147 24.8634 27.3008 24.7334 26.3881 25.338C17.0827 32.7882 11.6734 44.068 11.6895 55.9885C11.6895 57.2471 12.7097 58.2673 13.9683 58.2673Z" fill="black"/>
<path d="M62.1067 88.898C62.0889 88.9043 62.071 88.9109 62.0533 88.9176C54.9175 91.3062 47.1982 91.3062 40.0624 88.9176C38.8672 88.5451 37.5953 89.2066 37.2139 90.3989C36.781 91.5134 37.3336 92.7678 38.4481 93.2008C38.4919 93.2178 38.5362 93.2335 38.5811 93.2474C46.6741 95.9825 55.4416 95.9825 63.5344 93.2474C64.7422 92.8165 65.3956 91.5099 65.0157 90.2849C64.5956 89.0989 63.2932 88.4778 62.1067 88.898Z" fill="black"/>
<path d="M71.0539 27.6163C80.2833 34.1139 85.7682 44.7008 85.7524 55.9879C85.7524 57.2465 86.7727 58.2668 88.0313 58.2668C89.2899 58.2668 90.3102 57.2465 90.3102 55.9879C90.2785 43.2195 84.0827 31.2523 73.6745 23.8561C72.6361 23.1325 71.2078 23.3874 70.484 24.4258C69.7603 25.4641 70.0155 26.8926 71.0539 27.6163Z" fill="black"/>
<path d="M16.8166 81.2836C21.8508 81.2836 25.932 77.2024 25.932 72.1681C25.932 67.1339 21.8508 63.0527 16.8166 63.0527C11.7823 63.0527 7.70117 67.1337 7.70117 72.1681C7.70117 77.2026 11.7823 81.2836 16.8166 81.2836ZM16.8166 67.6104C19.3338 67.6104 21.3743 69.6509 21.3743 72.1681C21.3743 74.6854 19.3338 76.7258 16.8166 76.7258C14.2993 76.7258 12.2589 74.6854 12.2589 72.1681C12.2589 69.6509 14.2993 67.6104 16.8166 67.6104Z" fill="black"/>
<path d="M20.1285 82.7628C20.0881 82.7634 20.048 82.7645 20.0079 82.7656H13.6269C6.77031 82.5757 1.05803 87.9802 0.86807 94.8368C0.866979 94.877 0.866107 94.9173 0.865234 94.9574V96.7805C0.865234 98.0339 2.11861 98.7176 3.37199 98.7176H30.2624C31.5158 98.7176 32.7691 98.0339 32.7691 96.7805V94.9574C32.6461 88.0993 26.9866 82.6396 20.1285 82.7628ZM5.65106 94.1597C5.87897 90.7415 9.4112 87.3231 13.6269 87.3231H20.0077C24.2236 87.3231 27.7558 90.7413 27.9835 94.1597H5.65106Z" fill="black"/>
<path d="M76.0664 72.1681C76.0664 77.2024 80.1476 81.2836 85.1818 81.2836C90.216 81.2836 94.2972 77.2024 94.2972 72.1681C94.2972 67.1339 90.216 63.0527 85.1818 63.0527C80.1476 63.0527 76.0664 67.1337 76.0664 72.1681ZM89.7395 72.1681C89.7395 74.6854 87.699 76.7258 85.1818 76.7258C82.6646 76.7258 80.6241 74.6854 80.6241 72.1681C80.6241 69.6509 82.6646 67.6104 85.1818 67.6104C87.699 67.6104 89.7395 69.6509 89.7395 72.1681Z" fill="black"/>
<path d="M88.4935 82.7628C88.4532 82.7634 88.413 82.7645 88.3729 82.7656H81.9922C75.1356 82.5757 69.4233 87.9802 69.2333 94.8368C69.2322 94.877 69.2313 94.9173 69.2305 94.9574V96.7805C69.2305 98.0339 70.4839 98.7176 71.7372 98.7176H98.6276C99.881 98.7176 101.134 98.0339 101.134 96.7805V94.9574C101.011 88.0993 95.3517 82.6396 88.4935 82.7628ZM74.0161 94.1597C74.244 90.7415 77.7762 87.3231 81.9919 87.3231H88.3727C92.5886 87.3231 96.1209 90.7413 96.3486 94.1597H74.0161Z" fill="black"/>
</svg>
