<svg width="114" height="100" viewBox="0 0 114 100" fill="none" xmlns="http://www.w3.org/2000/svg">
<path fill-rule="evenodd" clip-rule="evenodd" d="M53.3523 0.382812H104.329C109.585 0.382812 113.867 4.66484 113.822 9.92109V49.9773C113.822 55.2336 109.54 59.5156 104.284 59.5156H85.5469L99.1406 96.5133C99.3445 97.0797 99.3219 97.6914 99.0727 98.2351C98.8234 98.7789 98.3703 99.2094 97.8039 99.4133C96.9883 99.7305 96.3539 99.5039 95.9461 99.2773C95.3797 98.9375 95.0398 98.4391 94.9039 98.0766L80.7437 59.5156H76.7789L62.732 98.0539C62.5508 98.575 62.143 99.0281 61.6445 99.3C61.2594 99.5039 60.625 99.7078 59.832 99.4133C59.2656 99.2094 58.8125 98.7789 58.5633 98.2351C58.3141 97.6914 58.2914 97.0797 58.4953 96.5133L71.9531 59.5156H57.4758L57.1586 60.1047C54.825 64.4773 49.7953 65.2703 46.3063 63.5258L33.7773 57.2727V97.2609C33.7773 98.507 32.7578 99.5266 31.5117 99.5266H9.67109C8.425 99.5266 7.40547 98.507 7.40547 97.2609V77.4594L6.63516 77.2102C2.73828 75.9187 0.132812 72.2711 0.132812 68.1703V57.25C0.132812 49.8641 4.12031 43.0445 10.532 39.4195L11.9367 38.6266L10.7359 37.5617C7.47344 34.707 5.59297 30.5836 5.59297 26.2789C5.59297 18.0094 12.3219 11.2805 20.5914 11.2805C28.8609 11.2805 35.5898 18.0094 35.5898 26.2789C35.5898 30.1531 34.1172 33.8461 31.4211 36.6555L30.2883 37.8336L31.7836 38.4906C32.0091 38.5808 32.2146 38.681 32.4135 38.7779L32.4137 38.778L32.4137 38.778L32.4139 38.7781C32.5146 38.8272 32.6135 38.8754 32.7125 38.9211L43.8141 44.4492V9.92109C43.8141 4.66484 48.0961 0.382812 53.3523 0.382812ZM20.5914 15.8344C14.8141 15.8344 10.1242 20.5242 10.1242 26.3016C10.1242 32.0789 14.8141 36.7914 20.5914 36.7687C26.3688 36.7687 31.0586 32.0789 31.0586 26.3016C31.0586 20.5242 26.3688 15.8344 20.5914 15.8344ZM53.3977 57.4539L53.4203 57.3859C53.9414 55.8906 53.2617 54.2141 51.8344 53.5117C50.3666 52.7822 47.419 51.3162 44.1795 49.705L44.0789 49.655L44.0175 49.6245L43.9865 49.6091L43.9765 49.6041C38.9147 47.0866 33.2052 44.2469 31.3305 43.3164L30.6961 42.9992C28.5211 41.8891 26.0516 41.3227 23.6047 41.3227H20.5914C11.8234 41.3227 4.66406 48.4594 4.66406 57.25V68.1703C4.66406 70.9344 6.90703 73.1773 9.67109 73.1773C10.9172 73.1773 11.9367 74.1969 11.9367 75.443V95.018H29.2688V53.6023C29.2688 52.8094 29.6539 52.0844 30.3336 51.6766C30.9906 51.2687 31.8289 51.2234 32.5312 51.5859C32.5312 51.5859 41.8656 56.2531 48.3227 59.4703C49.2742 59.9461 50.3844 59.9914 51.3586 59.5836C52.2875 59.1984 53.0578 58.4055 53.3977 57.4539ZM107.863 53.5344C108.815 52.5828 109.336 51.3141 109.336 49.9773H109.291V9.92109C109.291 8.58437 108.77 7.33828 107.818 6.38672C106.866 5.45781 105.575 4.91406 104.261 4.91406H53.307C50.543 4.91406 48.3 7.15703 48.3 9.92109V46.7602L48.9344 47.0773C49.9321 47.5627 50.8898 48.0401 51.7835 48.4856L51.7838 48.4858L51.7843 48.486C52.3919 48.7889 52.97 49.0771 53.5109 49.343L54.5305 49.8414L62.2336 34.4352C62.7773 33.3023 64.1594 32.8492 65.2695 33.4156C66.4023 33.9594 66.8555 35.3414 66.2891 36.4516L57.8609 53.3078L57.657 53.7383L58.0875 55.007H104.306C105.643 55.007 106.934 54.4633 107.863 53.5344ZM60.6475 14.9507H97.0334C98.2795 14.9507 99.3217 15.9702 99.3217 17.2163C99.3217 18.4624 98.3021 19.4819 97.0561 19.4819H60.6475C59.4014 19.4819 58.3818 18.4624 58.3818 17.2163C58.3818 15.9702 59.4014 14.9507 60.6475 14.9507ZM97.0338 27.6836H78.8408C77.5947 27.6836 76.5752 28.7031 76.5752 29.9492C76.5752 31.1953 77.5947 32.2148 78.8408 32.2148H97.0338C98.2799 32.2148 99.2994 31.1953 99.2994 29.9492C99.2994 28.7031 98.2799 27.6836 97.0338 27.6836ZM78.8408 40.4165H97.0338C98.2799 40.4165 99.2994 41.436 99.2994 42.6821C99.2994 43.9282 98.2799 44.9478 97.0338 44.9478H78.8408C77.5947 44.9478 76.5752 43.9282 76.5752 42.6821C76.5752 41.436 77.5947 40.4165 78.8408 40.4165Z" fill="black"/>
</svg>
