<svg width="70" height="62" viewBox="0 0 70 62" fill="none" xmlns="http://www.w3.org/2000/svg">
<path d="M22.6832 37.3347L28.7199 32.1939L22.6832 37.3347ZM22.6832 37.3347L28.72 42.4757C28.72 42.4757 28.72 42.4757 28.72 42.4757C29.2976 42.9675 29.3665 43.8338 28.8755 44.4106L28.8755 44.4106C28.6036 44.7299 28.2171 44.8938 27.8293 44.8938C27.5151 44.8938 27.1984 44.7856 26.9406 44.566C26.9406 44.566 26.9405 44.566 26.9405 44.566L19.676 38.3802L19.6759 38.3801C19.3696 38.119 19.1934 37.7375 19.1934 37.3347C19.1934 36.9323 19.3704 36.551 19.6756 36.2902L19.676 36.2899L26.9404 30.1042C27.5174 29.6122 28.3837 29.6822 28.8754 30.2588L28.8756 30.259C29.3663 30.8362 29.2977 31.7025 28.72 32.1938L22.6832 37.3347Z" fill="#0F83F0" stroke="#0F83F0" stroke-width="0.5"/>
<path d="M41.2793 42.4758L41.2794 42.4757L47.3162 37.3347L41.2794 32.1938C41.2794 32.1938 41.2794 32.1938 41.2794 32.1938C40.7025 31.7027 40.6329 30.8363 41.1246 30.2589L41.2793 42.4758ZM41.2793 42.4758C40.7027 42.9674 40.6328 43.8335 41.1245 44.4105C41.3959 44.73 41.7824 44.8938 42.1701 44.8938C42.4843 44.8938 42.801 44.7856 43.0589 44.566C43.0589 44.566 43.0589 44.566 43.0589 44.566L50.3235 38.3802L50.3236 38.3801C50.6299 38.119 50.8061 37.7375 50.8061 37.3347C50.8061 36.9325 50.6298 36.551 50.3236 36.29L50.3235 36.2899M41.2793 42.4758L50.3235 36.2899M50.3235 36.2899L43.0591 30.1043C43.0591 30.1043 43.059 30.1042 43.059 30.1042M50.3235 36.2899L43.059 30.1042M43.059 30.1042C42.4826 29.6122 41.6156 29.6822 41.1246 30.2589L43.059 30.1042Z" fill="#0F83F0" stroke="#0F83F0" stroke-width="0.5"/>
<path d="M32.1445 49.5042L32.1451 49.5043C32.2396 49.524 32.3343 49.534 32.4291 49.534C33.0644 49.534 33.6343 49.0907 33.7707 48.4441L33.7707 48.4441L38.2982 26.9479L38.2982 26.9478C38.4545 26.2057 37.9796 25.478 37.2381 25.3217L37.2381 25.3217C36.4959 25.1654 35.7682 25.6403 35.6119 26.3818L35.6119 26.3818L31.0844 47.878C31.0844 47.878 31.0844 47.878 31.0844 47.878C30.9281 48.6196 31.403 49.3479 32.1445 49.5042Z" fill="#0F83F0" stroke="#0F83F0" stroke-width="0.5"/>
<path d="M8.53774 61.2449H61.4623C65.7563 61.2449 69.25 57.7519 69.25 53.4572V8.53774C69.25 4.24364 65.7564 0.75 61.4623 0.75H8.53774C4.24364 0.75 0.75 4.24364 0.75 8.53774V53.4572C0.75 57.7519 4.24365 61.2449 8.53774 61.2449ZM3.49528 8.53774C3.49528 5.75769 5.75769 3.49528 8.53774 3.49528H61.4623C64.2423 3.49528 66.5047 5.75769 66.5047 8.53774V53.4572C66.5047 56.2372 64.2423 58.4996 61.4623 58.4996H8.53774C5.75769 58.4996 3.49528 56.2372 3.49528 53.4572V8.53774Z" fill="#0F83F0" stroke="#0F83F0" stroke-width="0.5"/>
<path d="M2.12264 19.2267H67.8774C68.6356 19.2267 69.25 18.6124 69.25 17.8541C69.25 17.0965 68.6357 16.4814 67.8774 16.4814H2.12264C1.36427 16.4814 0.75 17.0965 0.75 17.8541C0.75 18.6124 1.36436 19.2267 2.12264 19.2267Z" fill="#0F83F0" stroke="#0F83F0" stroke-width="0.5"/>
<path d="M16.3789 10.0518C16.3789 12.1482 18.0852 13.8545 20.1816 13.8545C22.2787 13.8545 23.9844 12.1482 23.9844 10.0518C23.9844 7.9547 22.2787 6.24902 20.1816 6.24902C18.0852 6.24902 16.3789 7.95467 16.3789 10.0518ZM19.1242 10.0518C19.1242 9.46884 19.5992 8.99431 20.1816 8.99431C20.7646 8.99431 21.2391 9.46876 21.2391 10.0518C21.2391 10.6348 20.7646 11.1092 20.1816 11.1092C19.5992 11.1092 19.1242 10.6347 19.1242 10.0518Z" fill="#0F83F0" stroke="#0F83F0" stroke-width="0.5"/>
<path d="M5.46289 10.0176C5.46289 12.1146 7.16857 13.8203 9.26562 13.8203C11.3627 13.8203 13.0684 12.1146 13.0684 10.0176C13.0684 7.92052 11.3627 6.21484 9.26562 6.21484C7.16857 6.21484 5.46289 7.92052 5.46289 10.0176ZM8.20817 10.0176C8.20817 9.4352 8.68325 8.96013 9.26562 8.96013C9.84855 8.96013 10.3231 9.43513 10.3231 10.0176C10.3231 10.6006 9.84862 11.075 9.26562 11.075C8.68317 11.075 8.20817 10.6005 8.20817 10.0176Z" fill="#0F83F0" stroke="#0F83F0" stroke-width="0.5"/>
<path d="M27.2949 10.0853C27.2949 12.1823 29.0006 13.888 31.097 13.888C33.1941 13.888 34.8998 12.1824 34.8998 10.0853C34.8998 7.98885 33.1941 6.2832 31.097 6.2832C29.0006 6.2832 27.2949 7.98888 27.2949 10.0853ZM30.0402 10.0853C30.0402 9.50223 30.5147 9.02786 31.097 9.02786C31.68 9.02786 32.1545 9.50231 32.1545 10.0853C32.1545 10.6683 31.68 11.1428 31.097 11.1428C30.5147 11.1428 30.0402 10.6684 30.0402 10.0853Z" fill="#0F83F0" stroke="#0F83F0" stroke-width="0.5"/>
</svg>
