<svg width="64" height="68" viewBox="0 0 64 68" fill="none" xmlns="http://www.w3.org/2000/svg">
<path d="M14.0124 40.9747H14.0812V53.8288H9.80015C9.50257 52.7732 8.83521 51.8614 7.92123 51.2617C7.00724 50.662 5.90832 50.4148 4.82724 50.5659C3.74617 50.7169 2.75592 51.2558 2.03921 52.0833C1.32251 52.9108 0.927734 53.9709 0.927734 55.0681C0.927734 56.1652 1.32251 57.2253 2.03921 58.0528C2.75592 58.8803 3.74617 59.4192 4.82724 59.5703C5.90832 59.7213 7.00724 59.4741 7.92123 58.8744C8.83521 58.2747 9.50257 57.3629 9.80015 56.3073H15.3132C15.6401 56.3073 15.9537 56.1769 16.185 55.9447C16.4163 55.7125 16.5465 55.3975 16.5469 55.0689V40.9747H23.5624V58.9605C22.5121 59.2587 21.6046 59.9289 21.0074 60.8472C20.4103 61.7655 20.1639 62.87 20.3137 63.9567C20.4634 65.0434 20.9992 66.039 21.8222 66.7595C22.6452 67.4801 23.6997 67.877 24.7911 67.877C25.8825 67.877 26.937 67.4801 27.76 66.7595C28.583 66.039 29.1188 65.0434 29.2686 63.9567C29.4183 62.87 29.1719 61.7655 28.5748 60.8472C27.9777 59.9289 27.0702 59.2587 26.0199 58.9605V40.9747H37.9668V58.9605C36.9165 59.2587 36.009 59.9289 35.4119 60.8472C34.8148 61.7655 34.5683 62.87 34.7181 63.9567C34.8678 65.0434 35.4037 66.039 36.2267 66.7595C37.0496 67.4801 38.1042 67.877 39.1956 67.877C40.2869 67.877 41.3415 67.4801 42.1645 66.7595C42.9874 66.039 43.5233 65.0434 43.673 63.9567C43.8228 62.87 43.5763 61.7655 42.9792 60.8472C42.3821 59.9289 41.4746 59.2587 40.4243 58.9605V40.9747H47.4398V55.0623C47.4402 55.3909 47.5704 55.7059 47.8017 55.9381C48.033 56.1703 48.3465 56.3008 48.6734 56.3008H54.1996C54.4972 57.3559 55.1644 58.2672 56.078 58.8666C56.9917 59.466 58.0902 59.713 59.1708 59.562C60.2515 59.411 61.2413 58.8722 61.9577 58.045C62.6741 57.2179 63.0687 56.1582 63.0687 55.0615C63.0687 53.9647 62.6741 52.905 61.9577 52.0779C61.2413 51.2507 60.2515 50.7119 59.1708 50.5609C58.0902 50.4099 56.9917 50.6569 56.078 51.2563C55.1644 51.8557 54.4972 52.767 54.1996 53.8222H49.9186V40.9747H50.071V38.5043H40.4374V33.1354H41.7776C42.7582 33.1341 43.6982 32.7418 44.3915 32.0447C45.0847 31.3475 45.4745 30.4024 45.4754 29.4167V26.5264H48.2032C48.3738 26.5417 48.5458 26.5212 48.708 26.4661C48.8703 26.411 49.0194 26.3225 49.1458 26.2064C49.2722 26.0902 49.3731 25.9488 49.4422 25.7912C49.5113 25.6337 49.5469 25.4634 49.5469 25.2912C49.5469 25.119 49.5113 24.9487 49.4422 24.7912C49.3731 24.6336 49.2722 24.4922 49.1458 24.376C49.0194 24.2598 48.8703 24.1714 48.708 24.1163C48.5458 24.0612 48.3738 24.0407 48.2032 24.056H45.4754V20.8281H50.1644C50.4713 20.8005 50.7568 20.6584 50.9648 20.4298C51.1727 20.2012 51.288 19.9027 51.288 19.5929C51.288 19.2832 51.1727 18.9846 50.9648 18.756C50.7568 18.5274 50.4713 18.3854 50.1644 18.3577H45.4754V15.1281H48.2032C48.3722 15.1406 48.5418 15.1178 48.7016 15.0614C48.8614 15.0049 49.0078 14.916 49.1319 14.8001C49.2559 14.6841 49.3549 14.5438 49.4225 14.3877C49.4902 14.2316 49.5251 14.0632 49.5251 13.893C49.5251 13.7227 49.4902 13.5543 49.4225 13.3982C49.3549 13.2422 49.2559 13.1018 49.1319 12.9859C49.0078 12.87 48.8614 12.781 48.7016 12.7246C48.5418 12.6681 48.3722 12.6454 48.2032 12.6578H45.4754V9.75924C45.4741 8.77382 45.0841 7.82913 44.3909 7.13232C43.6977 6.43552 42.7579 6.04348 41.7776 6.04218H38.9023V3.64264C38.8907 3.32177 38.7557 3.01795 38.5257 2.79509C38.2958 2.57223 37.9888 2.4477 37.6694 2.4477C37.35 2.4477 37.0431 2.57223 36.8131 2.79509C36.5832 3.01795 36.4482 3.32177 36.4366 3.64264V6.04218H33.2319V1.32874C33.2443 1.15895 33.2217 0.98842 33.1655 0.827808C33.1093 0.667196 33.0209 0.519948 32.9055 0.395257C32.7902 0.270567 32.6506 0.171113 32.4953 0.103106C32.3401 0.0350993 32.1725 0 32.0032 0C31.8338 0 31.6663 0.0350993 31.511 0.103106C31.3557 0.171113 31.2161 0.270567 31.1008 0.395257C30.9855 0.519948 30.897 0.667196 30.8408 0.827808C30.7847 0.98842 30.7621 1.15895 30.7744 1.32874V6.04218H27.5632V3.64264C27.5357 3.33412 27.3944 3.0471 27.167 2.83807C26.9396 2.62903 26.6426 2.51311 26.3345 2.51311C26.0263 2.51311 25.7293 2.62903 25.5019 2.83807C25.2745 3.0471 25.1332 3.33412 25.1057 3.64264V6.04218H22.2222C21.2419 6.04348 20.3021 6.43552 19.6089 7.13232C18.9157 7.82913 18.5257 8.77382 18.5244 9.75924V12.6496H15.5639C15.3982 12.6435 15.233 12.671 15.0782 12.7306C14.9233 12.7901 14.782 12.8804 14.6626 12.9961C14.5433 13.1118 14.4484 13.2505 14.3835 13.4039C14.3187 13.5572 14.2853 13.7222 14.2853 13.8889C14.2853 14.0555 14.3187 14.2205 14.3835 14.3738C14.4484 14.5272 14.5433 14.6659 14.6626 14.7816C14.782 14.8973 14.9233 14.9876 15.0782 15.0471C15.233 15.1067 15.3982 15.1342 15.5639 15.1281H18.5244V18.3495H13.8354C13.5285 18.3771 13.243 18.5192 13.035 18.7478C12.8271 18.9764 12.7118 19.2749 12.7118 19.5847C12.7118 19.8944 12.8271 20.193 13.035 20.4216C13.243 20.6501 13.5285 20.7922 13.8354 20.8199H18.5244V24.0395H15.5639C15.3933 24.0242 15.2214 24.0447 15.0591 24.0998C14.8968 24.1549 14.7477 24.2434 14.6213 24.3596C14.4949 24.4758 14.394 24.6171 14.3249 24.7747C14.2559 24.9323 14.2202 25.1026 14.2202 25.2747C14.2202 25.4469 14.2559 25.6172 14.3249 25.7748C14.394 25.9323 14.4949 26.0737 14.6213 26.1899C14.7477 26.3061 14.8968 26.3945 15.0591 26.4496C15.2214 26.5047 15.3933 26.5253 15.5639 26.5099H18.5244V29.4002C18.5253 30.3859 18.9151 31.331 19.6083 32.0282C20.3015 32.7254 21.2416 33.1176 22.2222 33.1189H23.5624V38.4796H14.0124V40.9747ZM5.45851 57.1341C5.05217 57.1354 4.65457 57.0155 4.31599 56.7897C3.97742 56.5638 3.71306 56.2422 3.55637 55.8653C3.39967 55.4884 3.35767 55.0733 3.43567 54.6724C3.51368 54.2716 3.70818 53.903 3.99459 53.6132C4.28099 53.3235 4.64644 53.1256 5.04472 53.0446C5.443 52.9637 5.85622 53.0033 6.23212 53.1584C6.60803 53.3135 6.92973 53.5771 7.15656 53.916C7.38339 54.2549 7.50516 54.6538 7.50645 55.0623C7.50776 55.6099 7.29283 56.1356 6.90886 56.5241C6.52489 56.9125 6.00326 57.1319 5.45851 57.1341ZM26.8554 63.3297C26.8554 63.7378 26.7352 64.1367 26.5099 64.4761C26.2846 64.8155 25.9643 65.0802 25.5894 65.2368C25.2146 65.3934 24.802 65.4349 24.4037 65.356C24.0055 65.2771 23.6394 65.0814 23.3517 64.7935C23.064 64.5057 22.8675 64.1386 22.7871 63.7387C22.7068 63.3387 22.746 62.9238 22.9 62.5462C23.054 62.1687 23.3158 61.8455 23.6524 61.6174C23.989 61.3893 24.3852 61.2665 24.7911 61.2645C25.0611 61.2643 25.3285 61.3176 25.5781 61.4212C25.8276 61.5249 26.0544 61.677 26.2455 61.8687C26.4366 62.0605 26.5882 62.2882 26.6918 62.5389C26.7953 62.7896 26.8487 63.0583 26.8489 63.3297H26.8554ZM41.273 63.3297C41.273 63.7378 41.1527 64.1367 40.9274 64.4761C40.7021 64.8155 40.3818 65.0802 40.007 65.2368C39.6321 65.3934 39.2195 65.4349 38.8213 65.356C38.423 65.2771 38.0569 65.0814 37.7692 64.7935C37.4815 64.5057 37.2851 64.1386 37.2047 63.7387C37.1243 63.3387 37.1636 62.9238 37.3176 62.5462C37.4716 62.1687 37.7334 61.8455 38.0699 61.6174C38.4065 61.3893 38.8027 61.2665 39.2087 61.2645C39.7528 61.2658 40.2743 61.4839 40.6588 61.8711C41.0433 62.2582 41.2594 62.7827 41.2599 63.3297H41.273ZM26.0363 38.4961V33.1354H29.1885C29.3542 33.1415 29.5194 33.1139 29.6742 33.0544C29.8291 32.9948 29.9704 32.9045 30.0897 32.7888C30.2091 32.6732 30.304 32.5345 30.3688 32.3811C30.4337 32.2277 30.4671 32.0628 30.4671 31.8961C30.4671 31.7294 30.4337 31.5645 30.3688 31.4111C30.304 31.2577 30.2091 31.1191 30.0897 31.0034C29.9704 30.8877 29.8291 30.7974 29.6742 30.7378C29.5194 30.6783 29.3542 30.6507 29.1885 30.6568H22.2222C21.8951 30.6564 21.5816 30.5256 21.3503 30.2931C21.119 30.0606 20.9889 29.7455 20.9885 29.4167V9.75924C20.9889 9.43063 21.1191 9.11562 21.3504 8.88341C21.5817 8.6512 21.8953 8.52077 22.2222 8.52077H41.7776C42.1044 8.52077 42.4177 8.65125 42.6488 8.88351C42.8798 9.11577 43.0097 9.43078 43.0097 9.75924V29.4167C43.0097 29.7453 42.8799 30.0605 42.6489 30.293C42.4179 30.5255 42.1045 30.6564 41.7776 30.6568H34.5508C34.2316 30.6685 33.9294 30.8042 33.7077 31.0353C33.486 31.2665 33.3621 31.575 33.3621 31.8961C33.3621 32.2172 33.486 32.5257 33.7077 32.7569C33.9294 32.988 34.2316 33.1237 34.5508 33.1354H37.9733V38.4961H26.0363ZM58.5413 53.0037C58.9482 53.0023 59.3463 53.1225 59.6852 53.349C60.024 53.5754 60.2884 53.8979 60.4447 54.2755C60.601 54.6531 60.6422 55.0689 60.5632 55.4701C60.4841 55.8714 60.2883 56.24 60.0006 56.5292C59.7128 56.8184 59.3462 57.0152 58.947 57.0947C58.5479 57.1742 58.1343 57.1327 57.7586 56.9756C57.3829 56.8185 57.0621 56.5528 56.8368 56.2121C56.6116 55.8715 56.492 55.4713 56.4933 55.0623C56.4959 54.5171 56.7125 53.995 57.096 53.6095C57.4795 53.224 57.9989 53.0063 58.5413 53.0037Z" fill="#0F83F0"/>
<path d="M38.9024 25.2864V13.8898C38.9024 13.7271 38.8705 13.5659 38.8085 13.4155C38.7465 13.2651 38.6556 13.1285 38.541 13.0135C38.4264 12.8985 38.2904 12.8073 38.1407 12.7452C37.9911 12.683 37.8307 12.6512 37.6688 12.6514H26.3313C26.1694 12.6512 26.009 12.683 25.8594 12.7452C25.7097 12.8073 25.5737 12.8985 25.4591 13.0135C25.3445 13.1285 25.2536 13.2651 25.1916 13.4155C25.1296 13.5659 25.0977 13.7271 25.0977 13.8898V25.2864C25.0977 25.6153 25.2276 25.9307 25.459 26.1633C25.6904 26.3959 26.0041 26.5265 26.3313 26.5265H37.6688C37.996 26.5265 38.3097 26.3959 38.5411 26.1633C38.7725 25.9307 38.9024 25.6153 38.9024 25.2864ZM36.4367 24.0479H27.5634V15.1283H36.4367V24.0479Z" fill="#0F83F0"/>
</svg>
