<svg width="74" height="74" viewBox="0 0 74 74" fill="none" xmlns="http://www.w3.org/2000/svg">
<mask id="path-1-outside-1" maskUnits="userSpaceOnUse" x="0" y="0" width="74" height="74" fill="black">
<rect fill="white" width="74" height="74"/>
<path d="M61.8607 13.4214L56.9424 8.50358C56.6392 8.19848 56.173 8.12341 55.7894 8.31803L47.7556 12.3876C46.0857 11.4828 44.3235 10.7583 42.4996 10.2266L39.5568 1.66286C39.4152 1.26451 39.0384 0.999107 38.6157 1.00006H31.6425C31.2178 0.995281 30.8367 1.26212 30.6947 1.66286L27.9044 10.2533C26.0843 10.7832 24.3283 11.5124 22.668 12.4273L14.5352 8.45002C14.1531 8.264 13.6945 8.34147 13.3951 8.64274L8.45671 13.5807C8.15544 13.8901 8.0885 14.3587 8.29125 14.7403L12.3742 22.7675C11.4708 24.4355 10.7488 26.1953 10.2199 28.0167L1.66286 30.9534C1.26451 31.0945 0.998629 31.4718 1.00006 31.8945V38.8739C0.995281 39.299 1.26164 39.6802 1.66286 39.8217L10.2332 42.6125C10.7631 44.4359 11.4943 46.1943 12.4139 47.8555L8.43663 55.9884C8.25061 56.37 8.32808 56.8286 8.62887 57.1284L13.5606 62.053C13.8638 62.3581 14.33 62.4332 14.7135 62.2385L22.7407 58.1623C24.4101 59.0757 26.1747 59.803 28.0033 60.33L30.9462 68.8803C31.0878 69.2787 31.4646 69.5441 31.8873 69.5431H38.8471C39.2718 69.5479 39.6529 69.281 39.7949 68.8803L42.5857 60.3099C44.4699 59.7595 46.2846 58.9939 47.9942 58.0298L60.8331 70.8089C62.2031 72.1857 64.061 72.9666 66.0029 72.9828C67.7584 72.9957 69.446 72.3057 70.6893 71.0676C73.3405 68.416 73.2214 63.995 70.4306 61.2046L57.6784 48.472C57.751 48.4064 57.8137 48.3304 57.8639 48.2467C58.9016 46.441 59.7165 44.5158 60.2898 42.513L68.8535 39.5836C69.2519 39.442 69.5177 39.0652 69.5163 38.642V31.7023C69.5211 31.2776 69.2547 30.8965 68.8535 30.7545L60.2631 27.9307C59.7318 26.1082 59.0006 24.3494 58.0824 22.6876L62.0597 14.5615C62.2443 14.1784 62.1644 13.7198 61.8607 13.4214ZM69.271 69.6956C68.3897 70.565 67.1951 71.0437 65.957 71.0212C64.5406 71.0045 63.1878 70.4306 62.1921 69.4235L40.0603 47.2588C41.2171 46.7772 42.2978 46.1292 43.2686 45.3368L63.0008 65.069C63.4025 65.4435 64.0313 65.421 64.4062 65.0193C64.762 64.6377 64.762 64.0457 64.4062 63.6641L44.6999 43.9582C45.6228 42.9458 46.3788 41.7938 46.9403 40.5448L69.0324 62.6431C71.038 64.5282 71.1451 67.6791 69.271 69.6956ZM50.0094 40.803L47.6695 38.4631C49.47 31.499 45.2833 24.3939 38.3192 22.5939C36.0329 22.0023 33.6289 22.044 31.3642 22.7144C30.8377 22.8712 30.5388 23.425 30.6952 23.951C30.7425 24.1103 30.8291 24.2542 30.9467 24.3714L36.8721 30.2973L37.1772 33.8566L33.8628 37.1705L30.3035 36.8659L24.3379 30.9003C23.9496 30.5125 23.3203 30.513 22.932 30.9017C22.8196 31.0146 22.7359 31.1528 22.6876 31.3049C20.5261 38.1576 24.3288 45.466 31.182 47.6274C33.3607 48.3146 35.6824 48.4165 37.9127 47.922L40.2196 50.2614C31.9519 53.0221 23.0118 48.558 20.2516 40.2908C17.4919 32.0231 21.9555 23.0831 30.2227 20.3229C38.4904 17.5632 47.4304 22.0267 50.1901 30.2939C51.333 33.7146 51.2685 37.423 50.0094 40.803ZM42.8707 43.0166C38.5655 47.331 31.5774 47.3386 27.2631 43.0333C24.7807 40.5562 23.6235 37.0467 24.1457 33.5778L29.1233 38.5559C29.2892 38.7204 29.5073 38.8208 29.7402 38.8409L34.1277 39.2187C34.4204 39.2459 34.7092 39.1412 34.9168 38.9337L38.8935 34.9564C39.1006 34.7484 39.2043 34.4601 39.1785 34.1679L38.8007 29.7866C38.7811 29.5537 38.6802 29.3356 38.5157 29.1702L33.6242 24.2786C34.0966 24.2169 34.5729 24.1863 35.0492 24.1858C41.1482 24.1897 46.0886 29.1372 46.0848 35.2357C46.0833 38.1523 44.928 40.9493 42.8707 43.0166ZM56.0678 22.2835C55.9224 22.5815 55.9348 22.932 56.1008 23.2179C57.1466 25.0203 57.9514 26.9527 58.4937 28.965C58.5898 29.2821 58.839 29.5317 59.1565 29.6278L67.5346 32.3651V37.9132L59.1498 40.8097C58.8323 40.9058 58.5831 41.1549 58.487 41.4725C57.9696 43.4116 57.2107 45.2775 56.2265 47.0268L51.5339 42.3074C55.4203 33.3038 51.2718 22.8536 42.2682 18.9677C33.2641 15.0813 22.8139 19.2292 18.928 28.2334C15.0416 37.237 19.1895 47.6872 28.1937 51.5731C32.5133 53.4376 37.3962 53.5122 41.7704 51.7792L46.5295 56.5383C44.9509 57.389 43.281 58.0557 41.5514 58.5272C41.2338 58.6228 40.9847 58.8724 40.8886 59.19L38.1179 67.5547H32.5836L29.7067 59.1766C29.6106 58.859 29.3614 58.6099 29.0439 58.5138C27.0264 57.9777 25.0882 57.1796 23.2772 56.1409C22.9817 55.9793 22.625 55.9793 22.3294 56.1409L14.4682 60.1177L10.5312 56.227L14.4218 48.273C14.5672 47.9756 14.5548 47.6251 14.3888 47.3386C13.343 45.5367 12.5411 43.6043 12.0026 41.592C11.9065 41.2745 11.6573 41.0253 11.3398 40.9287L2.98844 38.1518V32.6037L11.3398 29.7139C11.6573 29.6178 11.9065 29.3686 12.0026 29.0511C12.5454 27.0359 13.343 25.0978 14.3755 23.2844C14.5333 22.9908 14.5333 22.6369 14.3755 22.3433L10.3786 14.4687L14.3028 10.545L22.2568 14.429C22.5489 14.5849 22.899 14.5849 23.1912 14.429C24.994 13.3865 26.9264 12.5841 28.9378 12.0433C29.2553 11.9471 29.5044 11.6975 29.6005 11.38L32.3383 2.98892H37.8797L40.7695 11.3604C40.8656 11.6779 41.1148 11.927 41.4323 12.0232C43.4494 12.5693 45.3894 13.3688 47.2057 14.4027C47.4993 14.5605 47.8532 14.5605 48.1468 14.4027L56.0013 10.4255L59.912 14.3496L56.0678 22.2835Z"/>
</mask>
<path d="M61.8607 13.4214L56.9424 8.50358C56.6392 8.19848 56.173 8.12341 55.7894 8.31803L47.7556 12.3876C46.0857 11.4828 44.3235 10.7583 42.4996 10.2266L39.5568 1.66286C39.4152 1.26451 39.0384 0.999107 38.6157 1.00006H31.6425C31.2178 0.995281 30.8367 1.26212 30.6947 1.66286L27.9044 10.2533C26.0843 10.7832 24.3283 11.5124 22.668 12.4273L14.5352 8.45002C14.1531 8.264 13.6945 8.34147 13.3951 8.64274L8.45671 13.5807C8.15544 13.8901 8.0885 14.3587 8.29125 14.7403L12.3742 22.7675C11.4708 24.4355 10.7488 26.1953 10.2199 28.0167L1.66286 30.9534C1.26451 31.0945 0.998629 31.4718 1.00006 31.8945V38.8739C0.995281 39.299 1.26164 39.6802 1.66286 39.8217L10.2332 42.6125C10.7631 44.4359 11.4943 46.1943 12.4139 47.8555L8.43663 55.9884C8.25061 56.37 8.32808 56.8286 8.62887 57.1284L13.5606 62.053C13.8638 62.3581 14.33 62.4332 14.7135 62.2385L22.7407 58.1623C24.4101 59.0757 26.1747 59.803 28.0033 60.33L30.9462 68.8803C31.0878 69.2787 31.4646 69.5441 31.8873 69.5431H38.8471C39.2718 69.5479 39.6529 69.281 39.7949 68.8803L42.5857 60.3099C44.4699 59.7595 46.2846 58.9939 47.9942 58.0298L60.8331 70.8089C62.2031 72.1857 64.061 72.9666 66.0029 72.9828C67.7584 72.9957 69.446 72.3057 70.6893 71.0676C73.3405 68.416 73.2214 63.995 70.4306 61.2046L57.6784 48.472C57.751 48.4064 57.8137 48.3304 57.8639 48.2467C58.9016 46.441 59.7165 44.5158 60.2898 42.513L68.8535 39.5836C69.2519 39.442 69.5177 39.0652 69.5163 38.642V31.7023C69.5211 31.2776 69.2547 30.8965 68.8535 30.7545L60.2631 27.9307C59.7318 26.1082 59.0006 24.3494 58.0824 22.6876L62.0597 14.5615C62.2443 14.1784 62.1644 13.7198 61.8607 13.4214ZM69.271 69.6956C68.3897 70.565 67.1951 71.0437 65.957 71.0212C64.5406 71.0045 63.1878 70.4306 62.1921 69.4235L40.0603 47.2588C41.2171 46.7772 42.2978 46.1292 43.2686 45.3368L63.0008 65.069C63.4025 65.4435 64.0313 65.421 64.4062 65.0193C64.762 64.6377 64.762 64.0457 64.4062 63.6641L44.6999 43.9582C45.6228 42.9458 46.3788 41.7938 46.9403 40.5448L69.0324 62.6431C71.038 64.5282 71.1451 67.6791 69.271 69.6956ZM50.0094 40.803L47.6695 38.4631C49.47 31.499 45.2833 24.3939 38.3192 22.5939C36.0329 22.0023 33.6289 22.044 31.3642 22.7144C30.8377 22.8712 30.5388 23.425 30.6952 23.951C30.7425 24.1103 30.8291 24.2542 30.9467 24.3714L36.8721 30.2973L37.1772 33.8566L33.8628 37.1705L30.3035 36.8659L24.3379 30.9003C23.9496 30.5125 23.3203 30.513 22.932 30.9017C22.8196 31.0146 22.7359 31.1528 22.6876 31.3049C20.5261 38.1576 24.3288 45.466 31.182 47.6274C33.3607 48.3146 35.6824 48.4165 37.9127 47.922L40.2196 50.2614C31.9519 53.0221 23.0118 48.558 20.2516 40.2908C17.4919 32.0231 21.9555 23.0831 30.2227 20.3229C38.4904 17.5632 47.4304 22.0267 50.1901 30.2939C51.333 33.7146 51.2685 37.423 50.0094 40.803ZM42.8707 43.0166C38.5655 47.331 31.5774 47.3386 27.2631 43.0333C24.7807 40.5562 23.6235 37.0467 24.1457 33.5778L29.1233 38.5559C29.2892 38.7204 29.5073 38.8208 29.7402 38.8409L34.1277 39.2187C34.4204 39.2459 34.7092 39.1412 34.9168 38.9337L38.8935 34.9564C39.1006 34.7484 39.2043 34.4601 39.1785 34.1679L38.8007 29.7866C38.7811 29.5537 38.6802 29.3356 38.5157 29.1702L33.6242 24.2786C34.0966 24.2169 34.5729 24.1863 35.0492 24.1858C41.1482 24.1897 46.0886 29.1372 46.0848 35.2357C46.0833 38.1523 44.928 40.9493 42.8707 43.0166ZM56.0678 22.2835C55.9224 22.5815 55.9348 22.932 56.1008 23.2179C57.1466 25.0203 57.9514 26.9527 58.4937 28.965C58.5898 29.2821 58.839 29.5317 59.1565 29.6278L67.5346 32.3651V37.9132L59.1498 40.8097C58.8323 40.9058 58.5831 41.1549 58.487 41.4725C57.9696 43.4116 57.2107 45.2775 56.2265 47.0268L51.5339 42.3074C55.4203 33.3038 51.2718 22.8536 42.2682 18.9677C33.2641 15.0813 22.8139 19.2292 18.928 28.2334C15.0416 37.237 19.1895 47.6872 28.1937 51.5731C32.5133 53.4376 37.3962 53.5122 41.7704 51.7792L46.5295 56.5383C44.9509 57.389 43.281 58.0557 41.5514 58.5272C41.2338 58.6228 40.9847 58.8724 40.8886 59.19L38.1179 67.5547H32.5836L29.7067 59.1766C29.6106 58.859 29.3614 58.6099 29.0439 58.5138C27.0264 57.9777 25.0882 57.1796 23.2772 56.1409C22.9817 55.9793 22.625 55.9793 22.3294 56.1409L14.4682 60.1177L10.5312 56.227L14.4218 48.273C14.5672 47.9756 14.5548 47.6251 14.3888 47.3386C13.343 45.5367 12.5411 43.6043 12.0026 41.592C11.9065 41.2745 11.6573 41.0253 11.3398 40.9287L2.98844 38.1518V32.6037L11.3398 29.7139C11.6573 29.6178 11.9065 29.3686 12.0026 29.0511C12.5454 27.0359 13.343 25.0978 14.3755 23.2844C14.5333 22.9908 14.5333 22.6369 14.3755 22.3433L10.3786 14.4687L14.3028 10.545L22.2568 14.429C22.5489 14.5849 22.899 14.5849 23.1912 14.429C24.994 13.3865 26.9264 12.5841 28.9378 12.0433C29.2553 11.9471 29.5044 11.6975 29.6005 11.38L32.3383 2.98892H37.8797L40.7695 11.3604C40.8656 11.6779 41.1148 11.927 41.4323 12.0232C43.4494 12.5693 45.3894 13.3688 47.2057 14.4027C47.4993 14.5605 47.8532 14.5605 48.1468 14.4027L56.0013 10.4255L59.912 14.3496L56.0678 22.2835Z" fill="#0F83F0"/>
<path d="M61.8607 13.4214L56.9424 8.50358C56.6392 8.19848 56.173 8.12341 55.7894 8.31803L47.7556 12.3876C46.0857 11.4828 44.3235 10.7583 42.4996 10.2266L39.5568 1.66286C39.4152 1.26451 39.0384 0.999107 38.6157 1.00006H31.6425C31.2178 0.995281 30.8367 1.26212 30.6947 1.66286L27.9044 10.2533C26.0843 10.7832 24.3283 11.5124 22.668 12.4273L14.5352 8.45002C14.1531 8.264 13.6945 8.34147 13.3951 8.64274L8.45671 13.5807C8.15544 13.8901 8.0885 14.3587 8.29125 14.7403L12.3742 22.7675C11.4708 24.4355 10.7488 26.1953 10.2199 28.0167L1.66286 30.9534C1.26451 31.0945 0.998629 31.4718 1.00006 31.8945V38.8739C0.995281 39.299 1.26164 39.6802 1.66286 39.8217L10.2332 42.6125C10.7631 44.4359 11.4943 46.1943 12.4139 47.8555L8.43663 55.9884C8.25061 56.37 8.32808 56.8286 8.62887 57.1284L13.5606 62.053C13.8638 62.3581 14.33 62.4332 14.7135 62.2385L22.7407 58.1623C24.4101 59.0757 26.1747 59.803 28.0033 60.33L30.9462 68.8803C31.0878 69.2787 31.4646 69.5441 31.8873 69.5431H38.8471C39.2718 69.5479 39.6529 69.281 39.7949 68.8803L42.5857 60.3099C44.4699 59.7595 46.2846 58.9939 47.9942 58.0298L60.8331 70.8089C62.2031 72.1857 64.061 72.9666 66.0029 72.9828C67.7584 72.9957 69.446 72.3057 70.6893 71.0676C73.3405 68.416 73.2214 63.995 70.4306 61.2046L57.6784 48.472C57.751 48.4064 57.8137 48.3304 57.8639 48.2467C58.9016 46.441 59.7165 44.5158 60.2898 42.513L68.8535 39.5836C69.2519 39.442 69.5177 39.0652 69.5163 38.642V31.7023C69.5211 31.2776 69.2547 30.8965 68.8535 30.7545L60.2631 27.9307C59.7318 26.1082 59.0006 24.3494 58.0824 22.6876L62.0597 14.5615C62.2443 14.1784 62.1644 13.7198 61.8607 13.4214ZM69.271 69.6956C68.3897 70.565 67.1951 71.0437 65.957 71.0212C64.5406 71.0045 63.1878 70.4306 62.1921 69.4235L40.0603 47.2588C41.2171 46.7772 42.2978 46.1292 43.2686 45.3368L63.0008 65.069C63.4025 65.4435 64.0313 65.421 64.4062 65.0193C64.762 64.6377 64.762 64.0457 64.4062 63.6641L44.6999 43.9582C45.6228 42.9458 46.3788 41.7938 46.9403 40.5448L69.0324 62.6431C71.038 64.5282 71.1451 67.6791 69.271 69.6956ZM50.0094 40.803L47.6695 38.4631C49.47 31.499 45.2833 24.3939 38.3192 22.5939C36.0329 22.0023 33.6289 22.044 31.3642 22.7144C30.8377 22.8712 30.5388 23.425 30.6952 23.951C30.7425 24.1103 30.8291 24.2542 30.9467 24.3714L36.8721 30.2973L37.1772 33.8566L33.8628 37.1705L30.3035 36.8659L24.3379 30.9003C23.9496 30.5125 23.3203 30.513 22.932 30.9017C22.8196 31.0146 22.7359 31.1528 22.6876 31.3049C20.5261 38.1576 24.3288 45.466 31.182 47.6274C33.3607 48.3146 35.6824 48.4165 37.9127 47.922L40.2196 50.2614C31.9519 53.0221 23.0118 48.558 20.2516 40.2908C17.4919 32.0231 21.9555 23.0831 30.2227 20.3229C38.4904 17.5632 47.4304 22.0267 50.1901 30.2939C51.333 33.7146 51.2685 37.423 50.0094 40.803ZM42.8707 43.0166C38.5655 47.331 31.5774 47.3386 27.2631 43.0333C24.7807 40.5562 23.6235 37.0467 24.1457 33.5778L29.1233 38.5559C29.2892 38.7204 29.5073 38.8208 29.7402 38.8409L34.1277 39.2187C34.4204 39.2459 34.7092 39.1412 34.9168 38.9337L38.8935 34.9564C39.1006 34.7484 39.2043 34.4601 39.1785 34.1679L38.8007 29.7866C38.7811 29.5537 38.6802 29.3356 38.5157 29.1702L33.6242 24.2786C34.0966 24.2169 34.5729 24.1863 35.0492 24.1858C41.1482 24.1897 46.0886 29.1372 46.0848 35.2357C46.0833 38.1523 44.928 40.9493 42.8707 43.0166ZM56.0678 22.2835C55.9224 22.5815 55.9348 22.932 56.1008 23.2179C57.1466 25.0203 57.9514 26.9527 58.4937 28.965C58.5898 29.2821 58.839 29.5317 59.1565 29.6278L67.5346 32.3651V37.9132L59.1498 40.8097C58.8323 40.9058 58.5831 41.1549 58.487 41.4725C57.9696 43.4116 57.2107 45.2775 56.2265 47.0268L51.5339 42.3074C55.4203 33.3038 51.2718 22.8536 42.2682 18.9677C33.2641 15.0813 22.8139 19.2292 18.928 28.2334C15.0416 37.237 19.1895 47.6872 28.1937 51.5731C32.5133 53.4376 37.3962 53.5122 41.7704 51.7792L46.5295 56.5383C44.9509 57.389 43.281 58.0557 41.5514 58.5272C41.2338 58.6228 40.9847 58.8724 40.8886 59.19L38.1179 67.5547H32.5836L29.7067 59.1766C29.6106 58.859 29.3614 58.6099 29.0439 58.5138C27.0264 57.9777 25.0882 57.1796 23.2772 56.1409C22.9817 55.9793 22.625 55.9793 22.3294 56.1409L14.4682 60.1177L10.5312 56.227L14.4218 48.273C14.5672 47.9756 14.5548 47.6251 14.3888 47.3386C13.343 45.5367 12.5411 43.6043 12.0026 41.592C11.9065 41.2745 11.6573 41.0253 11.3398 40.9287L2.98844 38.1518V32.6037L11.3398 29.7139C11.6573 29.6178 11.9065 29.3686 12.0026 29.0511C12.5454 27.0359 13.343 25.0978 14.3755 23.2844C14.5333 22.9908 14.5333 22.6369 14.3755 22.3433L10.3786 14.4687L14.3028 10.545L22.2568 14.429C22.5489 14.5849 22.899 14.5849 23.1912 14.429C24.994 13.3865 26.9264 12.5841 28.9378 12.0433C29.2553 11.9471 29.5044 11.6975 29.6005 11.38L32.3383 2.98892H37.8797L40.7695 11.3604C40.8656 11.6779 41.1148 11.927 41.4323 12.0232C43.4494 12.5693 45.3894 13.3688 47.2057 14.4027C47.4993 14.5605 47.8532 14.5605 48.1468 14.4027L56.0013 10.4255L59.912 14.3496L56.0678 22.2835Z" stroke="#0F83F0" mask="url(#path-1-outside-1)"/>
</svg>
