<svg width="72" height="58" viewBox="0 0 72 58" fill="none" xmlns="http://www.w3.org/2000/svg">
<path d="M15.1719 38.5156C14.7344 38.5156 14.3906 38.1719 14.3906 37.7344V33.2812C14.3906 32.5469 13.7969 31.9688 13.0781 31.9531H9.17187C8.4375 31.9531 7.85937 32.5469 7.85937 33.2812V37.7344C7.85937 38.1719 7.51562 38.5156 7.07812 38.5156C6.64062 38.5156 6.29688 38.1719 6.29688 37.7344V33.2812C6.29688 31.6875 7.59375 30.4062 9.17187 30.3906H13.0625C14.6562 30.3906 15.9375 31.6875 15.9375 33.2812V37.7344C15.9531 38.1562 15.6094 38.5156 15.1719 38.5156Z" fill="#0F83F0"/>
<path d="M11.0781 31.2812C9.03125 31.2812 7.375 29.625 7.375 27.5781C7.375 25.5312 9.03125 23.875 11.0781 23.875C13.125 23.875 14.7813 25.5312 14.7813 27.5781C14.7813 29.625 13.125 31.2812 11.0781 31.2812ZM11.0781 25.4375C9.89063 25.4375 8.9375 26.3906 8.9375 27.5781C8.9375 28.7656 9.89063 29.7187 11.0781 29.7187C12.2656 29.7187 13.2188 28.7656 13.2188 27.5781C13.2188 26.4062 12.2656 25.4375 11.0781 25.4375Z" fill="#0F83F0"/>
<path d="M37.8437 10.625C37.8281 10.625 37.8124 10.625 37.8124 10.625C37.5937 10.6094 37.3906 10.5157 37.2499 10.3438L36.0781 8.92192C35.8124 8.59379 35.8593 8.09379 36.1874 7.82816C36.5156 7.56254 37.0156 7.60941 37.2812 7.93754L37.9062 8.70316L39.4374 7.17191C39.7499 6.87504 40.2499 6.87504 40.5468 7.18754C40.8437 7.48441 40.8437 7.96879 40.5468 8.26566L38.3906 10.4063C38.2499 10.5469 38.0468 10.625 37.8437 10.625Z" fill="#0F83F0"/>
<path d="M37.8437 30.875C37.8281 30.875 37.8124 30.875 37.8124 30.875C37.5937 30.8594 37.3906 30.7656 37.2499 30.5938L36.0781 29.1719C35.8124 28.8438 35.8593 28.3438 36.1874 28.0781C36.5156 27.8125 37.0156 27.8594 37.2812 28.1875L37.9062 28.9531L39.4374 27.4219C39.7499 27.125 40.2343 27.125 40.5468 27.4219C40.8437 27.7188 40.8437 28.2188 40.5468 28.5156L38.4062 30.6563C38.2499 30.7813 38.0468 30.875 37.8437 30.875Z" fill="#0F83F0"/>
<path d="M37.8437 51.1094C37.8281 51.1094 37.8124 51.1094 37.8124 51.1094C37.5937 51.0938 37.3906 51 37.2499 50.8281L36.0781 49.4063C35.8124 49.0782 35.8593 48.5782 36.1874 48.3125C36.5156 48.0469 37.0156 48.0938 37.2812 48.4219L37.9062 49.1875L39.4374 47.6563C39.7499 47.3594 40.2499 47.3594 40.5468 47.6719C40.8437 47.9688 40.8437 48.4532 40.5468 48.75L38.3906 50.875C38.2499 51.0313 38.0468 51.1094 37.8437 51.1094Z" fill="#0F83F0"/>
<path d="M30.0477 17.0312H70.6884C71.1259 17.0312 71.4696 16.6875 71.4696 16.25V1.26562C71.4696 0.828125 71.1259 0.484375 70.6884 0.484375H30.0477C29.6102 0.484375 29.2665 0.828125 29.2665 1.26562V7.98438H28.3134C26.079 7.98438 24.2665 9.79687 24.2665 12.0312V28.2188H21.6102C21.1727 22.4062 16.1259 18.0469 10.3134 18.4844C4.50086 18.9219 0.125857 23.9688 0.563357 29.7812C1.00086 35.5938 6.04773 39.9531 11.8602 39.5156C17.0634 39.125 21.2196 34.9844 21.5946 29.7812H24.2509V45.9688C24.2509 48.2031 26.0634 50.0156 28.2977 50.0156H29.2509V56.7344C29.2509 57.1719 29.5946 57.5156 30.0321 57.5156H70.6884C71.1259 57.5156 71.4696 57.1719 71.4696 56.7344V41.75C71.4696 41.3125 71.1259 40.9688 70.6884 40.9688H30.0477C29.6102 40.9688 29.2665 41.3125 29.2665 41.75V48.4688H28.3134C26.9384 48.4688 25.829 47.3594 25.829 45.9844V29.7812H29.2665V36.5C29.2665 36.9375 29.6102 37.2812 30.0477 37.2812H70.6884C71.1259 37.2812 71.4696 36.9375 71.4696 36.5V21.5C71.4696 21.0625 71.1259 20.7188 70.6884 20.7188H30.0477C29.6102 20.7188 29.2665 21.0625 29.2665 21.5V28.2188H25.829V12.0312C25.829 10.6562 26.9384 9.54688 28.3134 9.54688H29.2665V16.2656C29.2665 16.6875 29.6102 17.0312 30.0477 17.0312ZM11.079 37.9844C6.11023 37.9844 2.09461 33.9688 2.09461 29C2.09461 24.0312 6.11023 20.0156 11.079 20.0156C16.0477 20.0156 20.0634 24.0312 20.0634 29C20.0634 33.9531 16.0477 37.9844 11.079 37.9844ZM30.829 42.5312H69.9071V55.9531H30.829V42.5312ZM30.829 22.2812H69.9071V35.7188H30.829V22.2812ZM30.829 2.04688H69.9071V15.4687H30.829V2.04688Z" fill="#0F83F0"/>
<path d="M38.25 3.46875C35.375 3.46875 33.0312 5.8125 33.0312 8.6875C33.0312 11.5625 35.375 13.9063 38.25 13.9063C41.125 13.9063 43.4688 11.5625 43.4688 8.6875C43.4688 5.8125 41.1406 3.46875 38.25 3.46875ZM38.25 12.3438C36.2344 12.3438 34.5938 10.7031 34.5938 8.6875C34.5938 6.67188 36.2344 5.03125 38.25 5.03125C40.2656 5.03125 41.9063 6.67188 41.9063 8.6875C41.9063 10.7031 40.2813 12.3438 38.25 12.3438Z" fill="#0F83F0"/>
<path d="M46.8594 7.42188H55.75C56.1875 7.42188 56.5313 7.07812 56.5313 6.64062C56.5313 6.20312 56.1875 5.85938 55.75 5.85938H46.8594C46.4219 5.85938 46.0781 6.20312 46.0781 6.64062C46.0781 7.07812 46.4219 7.42188 46.8594 7.42188Z" fill="#0F83F0"/>
<path d="M66.5312 9.71875H46.8594C46.4219 9.71875 46.0781 10.0625 46.0781 10.5C46.0781 10.9375 46.4219 11.2812 46.8594 11.2812H66.5312C66.9687 11.2812 67.3125 10.9375 67.3125 10.5C67.3125 10.0625 66.9531 9.71875 66.5312 9.71875Z" fill="#0F83F0"/>
<path d="M38.25 34.1563C41.125 34.1563 43.4688 31.8125 43.4688 28.9375C43.4688 26.0625 41.125 23.7188 38.25 23.7188C35.375 23.7188 33.0312 26.0625 33.0312 28.9375C33.0469 31.8125 35.375 34.1406 38.25 34.1563ZM38.25 25.2813C40.2656 25.2813 41.9063 26.9219 41.9063 28.9375C41.9063 30.9531 40.2656 32.5938 38.25 32.5938C36.2344 32.5938 34.5938 30.9531 34.5938 28.9375C34.6094 26.9063 36.2344 25.2813 38.25 25.2813Z" fill="#0F83F0"/>
<path d="M46.8594 27.6562H55.75C56.1875 27.6562 56.5313 27.3125 56.5313 26.875C56.5313 26.4375 56.1875 26.0938 55.75 26.0938H46.8594C46.4219 26.0938 46.0781 26.4375 46.0781 26.875C46.0781 27.3125 46.4219 27.6562 46.8594 27.6562Z" fill="#0F83F0"/>
<path d="M46.8594 31.5156H66.5312C66.9687 31.5156 67.3125 31.1719 67.3125 30.7344C67.3125 30.2969 66.9687 29.9531 66.5312 29.9531H46.8594C46.4219 29.9531 46.0781 30.2969 46.0781 30.7344C46.0781 31.1719 46.4219 31.5156 46.8594 31.5156Z" fill="#0F83F0"/>
<path d="M38.25 43.9531C35.375 43.9531 33.0312 46.2969 33.0312 49.1719C33.0312 52.0469 35.375 54.3906 38.25 54.3906C41.125 54.3906 43.4688 52.0469 43.4688 49.1719C43.4688 46.2813 41.1406 43.9531 38.25 43.9531ZM38.25 52.8281C36.2344 52.8281 34.5938 51.1875 34.5938 49.1719C34.5938 47.1563 36.2344 45.5156 38.25 45.5156C40.2656 45.5156 41.9063 47.1563 41.9063 49.1719C41.9063 51.1875 40.2813 52.8281 38.25 52.8281Z" fill="#0F83F0"/>
<path d="M46.8594 47.9062H55.75C56.1875 47.9062 56.5313 47.5625 56.5313 47.125C56.5313 46.6875 56.1875 46.3438 55.75 46.3438H46.8594C46.4219 46.3438 46.0781 46.6875 46.0781 47.125C46.0781 47.5625 46.4219 47.9062 46.8594 47.9062Z" fill="#0F83F0"/>
<path d="M66.5312 50.2031H46.8594C46.4219 50.2031 46.0781 50.5469 46.0781 50.9844C46.0781 51.4219 46.4219 51.7656 46.8594 51.7656H66.5312C66.9687 51.7656 67.3125 51.4219 67.3125 50.9844C67.3125 50.5469 66.9531 50.2031 66.5312 50.2031Z" fill="#0F83F0"/>
</svg>
