<svg width="70" height="70" viewBox="0 0 70 70" fill="none" xmlns="http://www.w3.org/2000/svg">
<g clip-path="url(#clip0)">
<path d="M49.0582 2.75488H20.9081C18.6476 2.75488 16.8086 4.59389 16.8086 6.85439V27.6254C16.8086 29.8859 18.6476 31.7249 20.9081 31.7249H49.0582C51.3187 31.7249 53.1577 29.8859 53.1577 27.6254V6.85439C53.1577 4.59389 51.3187 2.75488 49.0582 2.75488ZM50.4247 27.6254C50.4247 28.3788 49.8117 28.9919 49.0582 28.9919H20.9081C20.1546 28.9919 19.5416 28.3788 19.5416 27.6254V6.85439C19.5416 6.10094 20.1546 5.48789 20.9081 5.48789H49.0582C49.8117 5.48789 50.4247 6.10094 50.4247 6.85439V27.6254Z" fill="#0F83F0"/>
<path d="M40.0396 21.3389H23.8431C23.0885 21.3389 22.4766 21.9507 22.4766 22.7054C22.4766 23.4601 23.0885 24.0719 23.8431 24.0719H40.0394C40.794 24.0719 41.4059 23.4601 41.4059 22.7054C41.4059 21.9507 40.7941 21.3389 40.0396 21.3389Z" fill="#0F83F0"/>
<path d="M46.7857 21.7393C46.5315 21.4852 46.1788 21.3389 45.8196 21.3389C45.4602 21.3389 45.1077 21.4852 44.8537 21.7393C44.5996 21.9935 44.4531 22.3461 44.4531 22.7054C44.4531 23.0648 44.5993 23.4173 44.8537 23.6716C45.1077 23.9257 45.4603 24.072 45.8196 24.072C46.1791 24.072 46.5315 23.9259 46.7857 23.6716C47.0398 23.4173 47.1861 23.0648 47.1861 22.7054C47.1861 22.3461 47.04 21.9935 46.7857 21.7393Z" fill="#0F83F0"/>
<path d="M45.8214 8.2207H23.8431C23.0885 8.2207 22.4766 8.83252 22.4766 9.58721C22.4766 10.3419 23.0885 10.9537 23.8431 10.9537H45.8213C46.5759 10.9537 47.1878 10.3419 47.1878 9.58721C47.1878 8.83252 46.576 8.2207 45.8214 8.2207Z" fill="#0F83F0"/>
<path d="M45.8214 14.7803H23.8431C23.0885 14.7803 22.4766 15.3921 22.4766 16.1468C22.4766 16.9015 23.0885 17.5133 23.8431 17.5133H45.8213C46.5759 17.5133 47.1878 16.9015 47.1878 16.1468C47.1878 15.3921 46.576 14.7803 45.8214 14.7803Z" fill="#0F83F0"/>
<path d="M16.1247 47.0205H4.09951C1.839 47.0205 0 48.8596 0 51.12V63.1453C0 65.4058 1.839 67.2448 4.09951 67.2448H16.1247C18.3853 67.2448 20.2243 65.4058 20.2243 63.1453V51.12C20.2244 48.8596 18.3853 47.0205 16.1247 47.0205ZM17.4914 63.1454C17.4914 63.8988 16.8783 64.5119 16.1249 64.5119H4.09951C3.34605 64.5119 2.73301 63.8988 2.73301 63.1454V51.12C2.73301 50.3666 3.34605 49.7535 4.09951 49.7535H16.1247C16.8782 49.7535 17.4912 50.3666 17.4912 51.12V63.1454H17.4914Z" fill="#0F83F0"/>
<path d="M41.0134 47.0205H28.9882C26.7277 47.0205 24.8887 48.8595 24.8887 51.12V63.1453C24.8887 65.4058 26.7277 67.2448 28.9882 67.2448H41.0134C43.2739 67.2448 45.1129 65.4058 45.1129 63.1453V51.12C45.1129 48.8596 43.2739 47.0205 41.0134 47.0205ZM42.3799 63.1454C42.3799 63.8988 41.7669 64.5119 41.0134 64.5119H28.9882C28.2347 64.5119 27.6217 63.8988 27.6217 63.1454V51.12C27.6217 50.3666 28.2347 49.7535 28.9882 49.7535H41.0134C41.7669 49.7535 42.3799 50.3666 42.3799 51.12V63.1454Z" fill="#0F83F0"/>
<path d="M65.9001 47.0205H53.8749C51.6144 47.0205 49.7754 48.8595 49.7754 51.12V63.1453C49.7754 65.4058 51.6144 67.2448 53.8749 67.2448H65.9001C68.1606 67.2448 69.9996 65.4058 69.9996 63.1453V51.12C69.9996 48.8596 68.1606 47.0205 65.9001 47.0205ZM67.2666 63.1454C67.2666 63.8988 66.6536 64.5119 65.9001 64.5119H53.8749C53.1214 64.5119 52.5084 63.8988 52.5084 63.1454V51.12C52.5084 50.3666 53.1214 49.7535 53.8749 49.7535H65.9001C66.6536 49.7535 67.2666 50.3666 67.2666 51.12V63.1454Z" fill="#0F83F0"/>
<path d="M58.5207 36.3879H36.3658V34.7308C36.3658 33.9761 35.7539 33.3643 34.9993 33.3643C34.2448 33.3643 33.6328 33.9761 33.6328 34.7308V36.3879H27.6028C26.8483 36.3879 26.2363 36.9999 26.2363 37.7544C26.2363 38.509 26.8483 39.1209 27.6028 39.1209H33.6328V42.8472C33.6328 43.6018 34.2448 44.2137 34.9993 44.2137C35.7539 44.2137 36.3658 43.6018 36.3658 42.8472V39.1209H58.5207V43.3853C58.5207 44.1399 59.1326 44.7519 59.8872 44.7519C60.6417 44.7519 61.2537 44.1399 61.2537 43.3853V39.1209C61.2537 37.614 60.0276 36.3879 58.5207 36.3879Z" fill="#0F83F0"/>
<path d="M17.4918 36.3877H11.4791C9.97205 36.3877 8.74609 37.6138 8.74609 39.1207V43.3851C8.74609 44.1398 9.35805 44.7516 10.1126 44.7516C10.8671 44.7516 11.4791 44.1396 11.4791 43.3851V39.1207H17.4917C18.2463 39.1207 18.8582 38.5087 18.8582 37.7542C18.8584 36.9996 18.2464 36.3877 17.4918 36.3877Z" fill="#0F83F0"/>
<path d="M23.4419 36.7891C23.1876 36.535 22.8352 36.3887 22.4759 36.3887C22.1164 36.3887 21.764 36.5347 21.51 36.7891C21.2558 37.0433 21.1094 37.3959 21.1094 37.7552C21.1094 38.1146 21.2555 38.4671 21.51 38.7211C21.764 38.9753 22.1166 39.1217 22.4759 39.1217C22.8353 39.1217 23.1878 38.9755 23.4419 38.7211C23.6961 38.4671 23.8424 38.1145 23.8424 37.7552C23.8422 37.3944 23.6962 37.0434 23.4419 36.7891Z" fill="#0F83F0"/>
</g>
<defs>
<clipPath id="clip0">
<rect width="70" height="70" fill="white"/>
</clipPath>
</defs>
</svg>
